<svg width="831" height="831" viewBox="0 0 831 831" fill="none" xmlns="http://www.w3.org/2000/svg">
<g clip-path="url(#clip0_1793_63)">
<mask id="path-1-inside-1_1793_63" fill="white">
<path d="M685.904 270.897C695.468 288.875 554.931 362.774 559.337 381.706C563.873 401.306 722.405 406.078 721.704 425.722C720.993 445.65 562.397 439.32 556.614 458.268C550.831 477.217 685.876 560.595 675.329 577.519C664.933 594.2 530.801 509.562 516.085 523.281C501.858 536.532 577.096 676.34 559.118 685.904C541.14 695.468 467.24 554.93 448.308 559.336C428.708 563.873 423.936 722.404 404.292 721.704C384.364 720.992 390.694 562.397 371.746 556.614C352.798 550.831 269.419 685.876 252.495 675.329C235.814 664.933 320.452 530.801 306.733 516.085C293.482 501.858 153.674 577.095 144.11 559.117C134.547 541.139 275.084 467.24 270.678 448.308C266.141 428.708 107.609 423.936 108.31 404.292C109.021 384.364 267.617 390.694 273.4 371.746C279.183 352.797 144.138 269.419 154.685 252.495C165.082 235.814 299.214 320.452 313.929 306.733C328.156 293.482 252.919 153.674 270.897 144.11C288.875 134.546 362.774 275.084 381.706 270.678C401.306 266.141 406.078 107.609 425.722 108.31C445.65 109.022 439.321 267.617 458.269 273.4C477.217 279.183 560.596 144.138 577.519 154.685C594.201 165.081 509.563 299.213 523.281 313.929C536.519 328.163 676.34 252.919 685.904 270.897Z"/>
</mask>
<path d="M685.904 270.897C695.468 288.875 554.931 362.774 559.337 381.706C563.873 401.306 722.405 406.078 721.704 425.722C720.993 445.65 562.397 439.32 556.614 458.268C550.831 477.217 685.876 560.595 675.329 577.519C664.933 594.2 530.801 509.562 516.085 523.281C501.858 536.532 577.096 676.34 559.118 685.904C541.14 695.468 467.24 554.93 448.308 559.336C428.708 563.873 423.936 722.404 404.292 721.704C384.364 720.992 390.694 562.397 371.746 556.614C352.798 550.831 269.419 685.876 252.495 675.329C235.814 664.933 320.452 530.801 306.733 516.085C293.482 501.858 153.674 577.095 144.11 559.117C134.547 541.139 275.084 467.24 270.678 448.308C266.141 428.708 107.609 423.936 108.31 404.292C109.021 384.364 267.617 390.694 273.4 371.746C279.183 352.797 144.138 269.419 154.685 252.495C165.082 235.814 299.214 320.452 313.929 306.733C328.156 293.482 252.919 153.674 270.897 144.11C288.875 134.546 362.774 275.084 381.706 270.678C401.306 266.141 406.078 107.609 425.722 108.31C445.65 109.022 439.321 267.617 458.269 273.4C477.217 279.183 560.596 144.138 577.519 154.685C594.201 165.081 509.563 299.213 523.281 313.929C536.519 328.163 676.34 252.919 685.904 270.897Z" fill="#3F9672" stroke="#26103D" stroke-width="16" mask="url(#path-1-inside-1_1793_63)"/>
<path d="M331.746 498.785L330.229 493.433C331.157 492.414 331.651 491.074 331.605 489.697L331.6 484.143C330.609 476.217 329.753 471.001 329.031 468.495C324.825 453.827 320.425 442.739 315.832 435.231C314.474 433.777 313.246 433.126 312.134 433.268L310.633 427.961L330.37 417.461L330.369 417.56L352.959 405.543C364.389 399.463 372.908 401.723 378.517 412.324C379.016 413.36 379.421 414.438 379.728 415.546C379.898 416.098 380.026 416.661 380.111 417.231C381.719 422.935 379.014 428.771 371.998 434.739C377.002 432.077 382.243 433.567 387.72 439.208C388.888 440.817 389.84 442.572 390.551 444.428L390.726 445.045C393.21 453.681 390.598 462.017 382.888 470.051C380.229 472.592 376.135 475.331 370.604 478.267L370.043 478.565L331.746 498.785ZM347.375 452.316L350.887 464.665C353.678 474.421 358.111 477.683 364.186 474.451C369.618 470.362 371.256 464.599 369.098 457.163L367.687 452.212C366.036 446.436 361.015 445.168 352.625 448.408L350.438 449.572C348.257 450.966 347.228 451.855 347.383 452.33L347.375 452.316ZM345.124 443.487C345.191 443.817 346.374 443.487 348.672 442.499L350.852 441.339C358.671 436.125 361.877 431.074 360.47 426.187L359.256 421.995C357.45 415.726 353.582 413.656 347.653 415.785C341.578 419.016 339.719 424.745 342.074 432.97L345.124 443.487Z" fill="#FFADE3"/>
<path d="M395.83 464.695L394.276 459.002C395.09 458.164 395.522 456.847 395.59 455.048C394.895 445.216 393.213 435.479 390.569 425.984C387.995 416.869 384.193 408.146 379.267 400.055C379.004 399.775 378.674 399.565 378.309 399.445C377.943 399.325 377.554 399.299 377.176 399.37L375.629 393.978L411.278 374.915L412.435 374.3C426.801 368.624 435.057 369.528 437.204 377.013L437.559 378.254L421.826 392.918C417.793 384.435 414.094 381.088 410.73 382.877L409.615 383.47C404.774 386.045 403.692 393.618 406.367 406.187L407.071 408.456C409.414 405.225 412.454 402.563 415.966 400.667C417.819 399.62 419.881 398.998 422.003 398.847C424.126 398.697 426.255 399.02 428.236 399.795C429.667 400.882 430.696 402.412 431.163 404.147C432.035 407.184 431.663 411.815 430.047 418.04C424.736 416.351 420.392 415.877 417.016 416.618C415.083 417.085 413.212 417.778 411.442 418.684L410.447 419.214L414.02 430.613C416.178 438.05 419.632 441.799 424.384 441.861L426.274 448.491L395.83 464.695Z" fill="#FFADE3"/>
<path d="M453.037 434.262L451.49 428.565C452.397 427.454 452.862 426.047 452.797 424.615C452.102 414.783 450.42 405.046 447.776 395.551C445.205 386.435 441.404 377.711 436.481 369.619C436.215 369.34 435.884 369.131 435.518 369.012C435.151 368.893 434.761 368.867 434.382 368.937L432.843 363.542L468.492 344.478L469.641 343.867C484.007 338.191 492.266 339.094 494.418 346.576L494.773 347.817L479.04 362.481C474.997 354.003 471.298 350.656 467.944 352.441L466.829 353.033C461.988 355.609 460.906 363.181 463.582 375.75L464.278 378.023C466.621 374.792 469.661 372.13 473.173 370.233C475.026 369.186 477.088 368.565 479.21 368.414C481.333 368.264 483.462 368.587 485.443 369.362C486.877 370.446 487.907 371.978 488.37 373.714C489.242 376.751 488.87 381.382 487.254 387.607C481.948 385.916 477.604 385.442 474.223 386.185C472.29 386.651 470.419 387.344 468.649 388.251L467.661 388.777L471.227 400.18C473.385 407.617 476.839 411.366 481.591 411.428L483.488 418.054L453.037 434.262Z" fill="#FFADE3"/>
<path d="M528.03 381.328L528.373 381.398C529.552 381.854 530.605 382.586 531.444 383.531C532.283 384.477 532.885 385.609 533.198 386.834C533.297 387.088 533.368 387.352 533.41 387.621C533.83 390.01 533.729 392.462 533.115 394.809C532.028 399.291 529.634 402.515 525.933 404.484C525.534 404.697 525.148 404.902 524.761 405.054C523.813 405.471 522.83 405.807 521.825 406.058C521.026 405.964 520.276 405.623 519.679 405.083C519.082 404.544 518.669 403.831 518.496 403.045L518.382 402.647C518.034 401.034 518.088 397.897 518.546 393.235C519.004 388.573 520.12 385.263 521.897 383.305C522.494 382.599 523.216 382.008 524.026 381.561C524.627 381.207 525.304 381.002 526 380.962C526.696 380.921 527.392 381.047 528.03 381.328Z" fill="#FFADE3"/>
</g>
<defs>
<clipPath id="clip0_1793_63">
<rect width="613.687" height="613.687" fill="white" transform="translate(0 288.221) rotate(-28.0119)"/>
</clipPath>
</defs>
</svg>
