<svg width="130" height="110" viewBox="0 0 130 110" fill="none" xmlns="http://www.w3.org/2000/svg">
<path d="M20 0H50V10H60V20H70V10H80V0H110V10H120V20H130V50H120V60H110V70H100V80H90V90H80V100H70V110H60V100H50V90H40V80H30V70H20V60H10V50H0V20H10V10H20V0Z" fill="#F3322C"/>
<path d="M60 20H70V30H60V20Z" fill="#B92B3C"/>
<path d="M70 30H80V40H70V30Z" fill="#B92B3C"/>
<path d="M80 40H90V50H80V40Z" fill="#B92B3C"/>
<path d="M70 50H80V60H70V50Z" fill="#B92B3C"/>
<path d="M60 60H70V70H60V60Z" fill="#B92B3C"/>
<path d="M50 70H60V80H50V70Z" fill="#B92B3C"/>
<path d="M60 80H70V90H60V80Z" fill="#B92B3C"/>
<rect x="100.5" y="20" width="10" height="10" fill="white"/>
<rect x="110.5" y="30" width="10" height="10" fill="white"/>
</svg>
