<svg width="285" height="276" viewBox="0 0 285 276" fill="none" xmlns="http://www.w3.org/2000/svg">
<g clip-path="url(#clip0_1793_55)">
<mask id="path-1-inside-1_1793_55" fill="white">
<path d="M151.428 116.646C125.787 91.2902 104.397 56.8302 109.85 21.2314C110.405 17.618 111.49 13.6659 114.59 11.7207C119.895 8.40891 126.538 13.1674 130.501 18.0058C152.248 44.5556 156.931 80.7269 160.777 114.824C163.858 77.0642 168.301 36.116 194.485 8.72286C200.395 2.53631 209.891 -2.92996 217.003 1.84691C223.658 6.316 222.894 16.2083 220.99 24.0077C212.673 57.9785 197.288 89.8194 175.838 117.458C199.982 94.0664 226.721 69.4434 260.14 65.7499C267.054 64.9866 274.751 65.4298 279.89 70.1082C285.812 75.5006 286.275 85.0729 282.879 92.3182C279.484 99.5636 273.056 104.901 266.475 109.462C241.114 126.952 211.114 136.503 180.299 136.898C211.947 139.661 242.121 151.502 267.19 170.995C276.366 178.154 285.486 190.336 279.515 200.315C276.051 206.101 268.786 208.317 262.093 209.173C221.255 214.504 181.162 186.822 162.219 150.293C180.959 180.826 200.198 213.698 199.193 249.5C198.922 259.281 196.045 270.472 187.164 274.584C180.306 277.767 171.845 275.397 166.076 270.509C160.308 265.622 156.753 258.659 153.826 251.691C140.967 220.823 137.745 186.795 144.582 154.067C139.252 185.356 133.49 217.705 115.773 244.039C109.382 253.519 98.3021 262.888 87.6966 258.598C76.3393 254.006 75.7722 238.185 78.4837 226.249C85.7905 194.374 102.442 165.396 126.31 143.017C92.6143 161.447 51.745 166.409 14.6472 156.498C9.20573 155.052 3.2465 152.805 0.9171 147.671C-2.0347 141.176 2.47012 133.642 7.93619 129.056C24.1619 115.445 47.684 115.605 68.6794 118.419C89.4143 121.196 109.853 125.853 129.743 132.331C95.8495 119.798 61.0995 103.626 40.5971 73.9186C36.7455 68.3292 33.5351 60.5422 37.6762 55.1682C41.1703 50.6252 47.9427 50.5575 53.6122 51.4747C93.329 57.7105 123.956 88.5508 151.564 117.741L151.428 116.646Z"/>
</mask>
<path d="M151.428 116.646C125.787 91.2902 104.397 56.8302 109.85 21.2314C110.405 17.618 111.49 13.6659 114.59 11.7207C119.895 8.40891 126.538 13.1674 130.501 18.0058C152.248 44.5556 156.931 80.7269 160.777 114.824C163.858 77.0642 168.301 36.116 194.485 8.72286C200.395 2.53631 209.891 -2.92996 217.003 1.84691C223.658 6.316 222.894 16.2083 220.99 24.0077C212.673 57.9785 197.288 89.8194 175.838 117.458C199.982 94.0664 226.721 69.4434 260.14 65.7499C267.054 64.9866 274.751 65.4298 279.89 70.1082C285.812 75.5006 286.275 85.0729 282.879 92.3182C279.484 99.5636 273.056 104.901 266.475 109.462C241.114 126.952 211.114 136.503 180.299 136.898C211.947 139.661 242.121 151.502 267.19 170.995C276.366 178.154 285.486 190.336 279.515 200.315C276.051 206.101 268.786 208.317 262.093 209.173C221.255 214.504 181.162 186.822 162.219 150.293C180.959 180.826 200.198 213.698 199.193 249.5C198.922 259.281 196.045 270.472 187.164 274.584C180.306 277.767 171.845 275.397 166.076 270.509C160.308 265.622 156.753 258.659 153.826 251.691C140.967 220.823 137.745 186.795 144.582 154.067C139.252 185.356 133.49 217.705 115.773 244.039C109.382 253.519 98.3021 262.888 87.6966 258.598C76.3393 254.006 75.7722 238.185 78.4837 226.249C85.7905 194.374 102.442 165.396 126.31 143.017C92.6143 161.447 51.745 166.409 14.6472 156.498C9.20573 155.052 3.2465 152.805 0.9171 147.671C-2.0347 141.176 2.47012 133.642 7.93619 129.056C24.1619 115.445 47.684 115.605 68.6794 118.419C89.4143 121.196 109.853 125.853 129.743 132.331C95.8495 119.798 61.0995 103.626 40.5971 73.9186C36.7455 68.3292 33.5351 60.5422 37.6762 55.1682C41.1703 50.6252 47.9427 50.5575 53.6122 51.4747C93.329 57.7105 123.956 88.5508 151.564 117.741L151.428 116.646Z" fill="#FED33D" stroke="#26103D" stroke-width="10" mask="url(#path-1-inside-1_1793_55)"/>
<mask id="path-2-inside-2_1793_55" fill="white">
<path d="M142.501 178.64C164.97 178.64 183.185 160.445 183.185 138C183.185 115.555 164.97 97.3596 142.501 97.3596C120.031 97.3596 101.816 115.555 101.816 138C101.816 160.445 120.031 178.64 142.501 178.64Z"/>
</mask>
<path d="M142.501 178.64C164.97 178.64 183.185 160.445 183.185 138C183.185 115.555 164.97 97.3596 142.501 97.3596C120.031 97.3596 101.816 115.555 101.816 138C101.816 160.445 120.031 178.64 142.501 178.64Z" fill="#FFADE3" stroke="#26103D" stroke-width="10" mask="url(#path-2-inside-2_1793_55)"/>
</g>
<defs>
<clipPath id="clip0_1793_55">
<rect width="285" height="276" fill="white"/>
</clipPath>
</defs>
</svg>
