<svg width="1169" height="898" viewBox="0 0 1169 898" fill="none" xmlns="http://www.w3.org/2000/svg">
<g clip-path="url(#clip0_1780_1189)">
<mask id="path-1-inside-1_1780_1189" fill="white">
<path d="M97.7766 513.79C78.3292 501.721 68.5969 485.37 68.5969 463.983C68.4307 453.487 71.4129 443.181 77.1599 434.394C83.7803 425.401 92.3437 420.778 102.454 420.778C106.977 420.735 111.464 421.587 115.656 423.283C119.849 424.98 123.665 427.488 126.885 430.664C130.105 433.84 132.665 437.621 134.419 441.789C136.172 445.958 137.085 450.432 137.104 454.954C137.149 463.162 134.09 471.084 128.54 477.132C125.246 480.602 121.252 483.333 116.824 485.144C112.395 486.955 107.632 487.805 102.85 487.637L97.0036 487.259C103.624 495.425 114.13 501.253 128.54 504.365C135.778 506.309 143.229 507.354 150.722 507.477C168.227 507.477 183.015 503.987 195.482 497.368C207.535 490.749 213.76 481.413 213.76 469.739C213.76 460.746 208.705 451.752 198.972 443.28C187.296 433.549 169.397 426.156 145.272 420.706C133.722 418.12 122.398 414.608 111.413 410.202C86.1011 399.301 73.6338 383.346 73.6338 362.733C73.6338 351.832 76.7464 339.349 83.3668 324.959C64.693 303.177 55.3379 278.66 55.3379 251.805C55.3379 226.515 63.5236 203.545 80.2546 182.536C105.549 153.36 136.69 138.575 173.66 138.575L185.336 139.348C189.075 132.259 193.935 125.821 199.728 120.282C212.597 107.954 229.759 101.115 247.581 101.215C258.918 101.039 269.998 104.591 279.119 111.324C283.266 114.434 286.6 118.5 288.836 123.176C291.073 127.852 292.146 132.999 291.964 138.179C292.11 142.519 291.107 146.82 289.057 150.648C287.006 154.476 283.982 157.695 280.288 159.98C276.524 162.247 272.215 163.453 267.821 163.469C264.316 163.453 260.851 162.72 257.64 161.316C254.428 159.911 251.538 157.865 249.147 155.303C244.737 150.523 242.246 144.286 242.148 137.784C242.148 131.956 244.469 126.505 249.147 121.055C250.67 119.311 252.499 117.86 254.544 116.774C250.733 117.129 246.957 117.779 243.246 118.717C236.851 120.219 231.2 123.949 227.306 129.24C223.282 134.786 221.099 141.454 221.064 148.306C238.364 155.314 253.717 166.389 265.824 180.593C283.346 202.394 291.91 226.119 291.91 251.805C291.91 277.887 282.915 302.008 265.446 323.413C240.53 351.041 209.784 365.053 173.588 365.053C150.2 365.053 127.658 358.434 105.872 344.817C105.872 352.588 112.493 358.812 125.662 363.884C136.959 368.165 157.18 372.878 186.828 377.501C204.723 380.211 217.172 382.933 224.177 385.667C236.53 389.773 248.09 395.96 258.358 403.96C272.75 416.803 279.766 430.815 279.766 445.978C279.766 458.821 275.089 471.286 266.148 483.338C257.561 494.476 246.675 503.635 234.233 510.193C213.22 522.262 187.926 528.091 158.674 528.091C135.143 528.181 114.903 523.521 97.7766 513.79ZM195.86 306.774C203.254 291.971 207.158 272.131 207.158 246.841C207.158 224.662 203.65 204.804 196.633 188.076C190.031 173.686 182.637 166.671 173.678 166.671C167.831 166.671 162.003 170.574 156.552 177.967C145.673 193.556 140.228 216.514 140.216 246.841C140.216 270.566 144.102 291.197 151.891 307.997C158.494 320.84 165.511 327.46 173.678 327.46C181.846 327.46 189.239 320.391 195.86 306.774Z"/>
</mask>
<path d="M97.7766 513.79C78.3292 501.721 68.5969 485.37 68.5969 463.983C68.4307 453.487 71.4129 443.181 77.1599 434.394C83.7803 425.401 92.3437 420.778 102.454 420.778C106.977 420.735 111.464 421.587 115.656 423.283C119.849 424.98 123.665 427.488 126.885 430.664C130.105 433.84 132.665 437.621 134.419 441.789C136.172 445.958 137.085 450.432 137.104 454.954C137.149 463.162 134.09 471.084 128.54 477.132C125.246 480.602 121.252 483.333 116.824 485.144C112.395 486.955 107.632 487.805 102.85 487.637L97.0036 487.259C103.624 495.425 114.13 501.253 128.54 504.365C135.778 506.309 143.229 507.354 150.722 507.477C168.227 507.477 183.015 503.987 195.482 497.368C207.535 490.749 213.76 481.413 213.76 469.739C213.76 460.746 208.705 451.752 198.972 443.28C187.296 433.549 169.397 426.156 145.272 420.706C133.722 418.12 122.398 414.608 111.413 410.202C86.1011 399.301 73.6338 383.346 73.6338 362.733C73.6338 351.832 76.7464 339.349 83.3668 324.959C64.693 303.177 55.3379 278.66 55.3379 251.805C55.3379 226.515 63.5236 203.545 80.2546 182.536C105.549 153.36 136.69 138.575 173.66 138.575L185.336 139.348C189.075 132.259 193.935 125.821 199.728 120.282C212.597 107.954 229.759 101.115 247.581 101.215C258.918 101.039 269.998 104.591 279.119 111.324C283.266 114.434 286.6 118.5 288.836 123.176C291.073 127.852 292.146 132.999 291.964 138.179C292.11 142.519 291.107 146.82 289.057 150.648C287.006 154.476 283.982 157.695 280.288 159.98C276.524 162.247 272.215 163.453 267.821 163.469C264.316 163.453 260.851 162.72 257.64 161.316C254.428 159.911 251.538 157.865 249.147 155.303C244.737 150.523 242.246 144.286 242.148 137.784C242.148 131.956 244.469 126.505 249.147 121.055C250.67 119.311 252.499 117.86 254.544 116.774C250.733 117.129 246.957 117.779 243.246 118.717C236.851 120.219 231.2 123.949 227.306 129.24C223.282 134.786 221.099 141.454 221.064 148.306C238.364 155.314 253.717 166.389 265.824 180.593C283.346 202.394 291.91 226.119 291.91 251.805C291.91 277.887 282.915 302.008 265.446 323.413C240.53 351.041 209.784 365.053 173.588 365.053C150.2 365.053 127.658 358.434 105.872 344.817C105.872 352.588 112.493 358.812 125.662 363.884C136.959 368.165 157.18 372.878 186.828 377.501C204.723 380.211 217.172 382.933 224.177 385.667C236.53 389.773 248.09 395.96 258.358 403.96C272.75 416.803 279.766 430.815 279.766 445.978C279.766 458.821 275.089 471.286 266.148 483.338C257.561 494.476 246.675 503.635 234.233 510.193C213.22 522.262 187.926 528.091 158.674 528.091C135.143 528.181 114.903 523.521 97.7766 513.79ZM195.86 306.774C203.254 291.971 207.158 272.131 207.158 246.841C207.158 224.662 203.65 204.804 196.633 188.076C190.031 173.686 182.637 166.671 173.678 166.671C167.831 166.671 162.003 170.574 156.552 177.967C145.673 193.556 140.228 216.514 140.216 246.841C140.216 270.566 144.102 291.197 151.891 307.997C158.494 320.84 165.511 327.46 173.678 327.46C181.846 327.46 189.239 320.391 195.86 306.774Z" fill="#FFADE3" stroke="#26103D" stroke-width="10" mask="url(#path-1-inside-1_1780_1189)"/>
<mask id="path-2-inside-2_1780_1189" fill="white">
<path d="M349.209 376.816C318.464 348.792 303.279 314.94 303.279 274.846C303.271 249.379 310.371 224.414 323.78 202.761C337.189 181.108 356.376 163.625 379.181 152.28C397.839 143.163 418.358 138.502 439.124 138.664C455.993 138.783 472.715 141.826 488.544 147.658C518.155 159.25 542.786 180.819 558.182 208.64C573.578 236.461 578.771 268.784 572.863 300.026C566.956 331.268 550.319 359.465 525.828 379.746C501.336 400.027 470.528 411.117 438.728 411.1C405.644 411.046 376.068 399.768 349.209 376.816ZM464.347 357.749C474.079 337.118 479.134 309.49 479.134 274.846C479.134 246.84 475.627 221.927 468.233 200.145C460.065 177.565 450.338 166.281 439.052 166.293C425.038 166.293 413.758 182.247 405.573 214.535C401.109 234.326 398.888 254.558 398.952 274.846C398.952 300.928 402.064 324.671 408.685 345.68C416.852 369.807 426.975 381.871 439.052 381.871C448.461 381.871 457.025 373.686 464.419 357.749H464.347Z"/>
</mask>
<path d="M349.209 376.816C318.464 348.792 303.279 314.94 303.279 274.846C303.271 249.379 310.371 224.414 323.78 202.761C337.189 181.108 356.376 163.625 379.181 152.28C397.839 143.163 418.358 138.502 439.124 138.664C455.993 138.783 472.715 141.826 488.544 147.658C518.155 159.25 542.786 180.819 558.182 208.64C573.578 236.461 578.771 268.784 572.863 300.026C566.956 331.268 550.319 359.465 525.828 379.746C501.336 400.027 470.528 411.117 438.728 411.1C405.644 411.046 376.068 399.768 349.209 376.816ZM464.347 357.749C474.079 337.118 479.134 309.49 479.134 274.846C479.134 246.84 475.627 221.927 468.233 200.145C460.065 177.565 450.338 166.281 439.052 166.293C425.038 166.293 413.758 182.247 405.573 214.535C401.109 234.326 398.888 254.558 398.952 274.846C398.952 300.928 402.064 324.671 408.685 345.68C416.852 369.807 426.975 381.871 439.052 381.871C448.461 381.871 457.025 373.686 464.419 357.749H464.347Z" fill="#FFADE3" stroke="#26103D" stroke-width="10" mask="url(#path-2-inside-2_1780_1189)"/>
<mask id="path-3-inside-3_1780_1189" fill="white">
<path d="M634.498 376.816C603.753 348.792 588.568 314.94 588.568 274.846C588.56 249.378 595.66 224.414 609.069 202.761C622.478 181.108 641.664 163.625 664.469 152.28C683.121 143.165 703.635 138.504 724.395 138.664C741.27 138.782 757.997 141.825 773.832 147.658C803.444 159.25 828.075 180.819 843.471 208.64C858.867 236.461 864.06 268.784 858.152 300.026C852.245 331.268 835.608 359.465 811.117 379.746C786.626 400.027 755.818 411.117 724.017 411.1C690.933 411.046 661.357 399.768 634.498 376.816ZM749.636 357.749C759.35 337.118 764.423 309.49 764.423 274.846C764.423 246.84 760.915 221.927 753.521 200.145C745.353 177.565 735.621 166.28 724.323 166.292C710.326 166.292 699.029 182.247 690.862 214.535C686.398 234.326 684.177 254.558 684.241 274.846C684.241 300.928 687.353 324.671 693.974 345.68C702.141 369.807 712.257 381.871 724.323 381.871C733.75 381.871 742.314 373.686 749.708 357.749H749.636Z"/>
</mask>
<path d="M634.498 376.816C603.753 348.792 588.568 314.94 588.568 274.846C588.56 249.378 595.66 224.414 609.069 202.761C622.478 181.108 641.664 163.625 664.469 152.28C683.121 143.165 703.635 138.504 724.395 138.664C741.27 138.782 757.997 141.825 773.832 147.658C803.444 159.25 828.075 180.819 843.471 208.64C858.867 236.461 864.06 268.784 858.152 300.026C852.245 331.268 835.608 359.465 811.117 379.746C786.626 400.027 755.818 411.117 724.017 411.1C690.933 411.046 661.357 399.768 634.498 376.816ZM749.636 357.749C759.35 337.118 764.423 309.49 764.423 274.846C764.423 246.84 760.915 221.927 753.521 200.145C745.353 177.565 735.621 166.28 724.323 166.292C710.326 166.292 699.029 182.247 690.862 214.535C686.398 234.326 684.177 254.558 684.241 274.846C684.241 300.928 687.353 324.671 693.974 345.68C702.141 369.807 712.257 381.871 724.323 381.871C733.75 381.871 742.314 373.686 749.708 357.749H749.636Z" fill="#FFADE3" stroke="#26103D" stroke-width="10" mask="url(#path-3-inside-3_1780_1189)"/>
<mask id="path-4-inside-4_1780_1189" fill="white">
<path d="M979.336 408.312C933.011 395.469 901.888 369.783 886.309 330.481C879.463 312.332 876.036 293.073 876.199 273.677C875.945 241.315 887.105 209.898 907.718 184.946C934.182 154.206 966.096 138.647 1003.86 138.647H1038.88V69.3773C1038.96 63.0913 1040.29 56.8831 1042.77 51.1094C1045.26 45.3357 1048.86 40.1103 1053.38 35.7341C1057.89 31.3579 1063.23 27.9171 1069.08 25.6092C1074.92 23.3014 1081.17 22.1719 1087.46 22.2862L1134.23 22.2862V283.391C1134.33 310.474 1125.58 336.85 1109.32 358.506C1102.4 368.669 1093.7 377.499 1083.64 384.569C1061.23 401.832 1033.7 411.141 1005.4 411.028C996.641 411.106 987.896 410.195 979.336 408.312ZM1027.91 365.143C1035.3 354.62 1039.19 341.004 1039.19 324.276V169.782C1017.01 169.782 1001.41 174.855 992.883 184.964C979.265 200.145 972.644 230.112 972.644 274.469C972.644 312.998 978.095 341.405 988.997 359.693C994.826 370.197 1001.84 375.252 1010.41 375.252C1016.7 375.252 1022.53 371.744 1027.98 365.143H1027.91Z"/>
</mask>
<path d="M979.336 408.312C933.011 395.469 901.888 369.783 886.309 330.481C879.463 312.332 876.036 293.073 876.199 273.677C875.945 241.315 887.105 209.898 907.718 184.946C934.182 154.206 966.096 138.647 1003.86 138.647H1038.88V69.3773C1038.96 63.0913 1040.29 56.8831 1042.77 51.1094C1045.26 45.3357 1048.86 40.1103 1053.38 35.7341C1057.89 31.3579 1063.23 27.9171 1069.08 25.6092C1074.92 23.3014 1081.17 22.1719 1087.46 22.2862L1134.23 22.2862V283.391C1134.33 310.474 1125.58 336.85 1109.32 358.506C1102.4 368.669 1093.7 377.499 1083.64 384.569C1061.23 401.832 1033.7 411.141 1005.4 411.028C996.641 411.106 987.896 410.195 979.336 408.312ZM1027.91 365.143C1035.3 354.62 1039.19 341.004 1039.19 324.276V169.782C1017.01 169.782 1001.41 174.855 992.883 184.964C979.265 200.145 972.644 230.112 972.644 274.469C972.644 312.998 978.095 341.405 988.997 359.693C994.826 370.197 1001.84 375.252 1010.41 375.252C1016.7 375.252 1022.53 371.744 1027.98 365.143H1027.91Z" fill="#FFADE3" stroke="#26103D" stroke-width="10" mask="url(#path-4-inside-4_1780_1189)"/>
<mask id="path-5-inside-5_1780_1189" fill="white">
<path d="M104.021 881.379C93.5146 871.648 86.0306 857.995 81.0473 841.303L31.2324 624.933C74.409 624.933 95.8357 624.933 95.8357 625.329C102.636 626.445 109.129 628.963 114.905 632.722C126.516 640.912 135.348 652.453 140.218 665.801C140.595 667.743 148.385 703.934 163.173 775.146C169.793 807.055 173.283 824.179 174.075 826.895C177.565 838.173 182.638 843.623 188.467 843.623C192.749 843.623 200.539 836.23 211.854 821.841C234.81 791.874 249.994 757.248 257.01 717.514C253.653 717.984 250.271 718.242 246.882 718.288C233.263 718.288 221.192 712.891 210.685 702.333C202.435 693.289 197.855 681.495 197.84 669.254C198.019 657.272 202.886 645.837 211.398 637.401C219.909 628.964 231.388 624.198 243.373 624.124C257.01 624.124 269.465 629.958 280.739 641.626C288.529 651.357 292.415 663.426 292.415 678.212C292.415 710.122 283.852 745.538 267.121 784.049C234.031 859.596 193.558 897.369 145.704 897.369C130.28 897.542 115.371 891.823 104.021 881.379Z"/>
</mask>
<path d="M104.021 881.379C93.5146 871.648 86.0306 857.995 81.0473 841.303L31.2324 624.933C74.409 624.933 95.8357 624.933 95.8357 625.329C102.636 626.445 109.129 628.963 114.905 632.722C126.516 640.912 135.348 652.453 140.218 665.801C140.595 667.743 148.385 703.934 163.173 775.146C169.793 807.055 173.283 824.179 174.075 826.895C177.565 838.173 182.638 843.623 188.467 843.623C192.749 843.623 200.539 836.23 211.854 821.841C234.81 791.874 249.994 757.248 257.01 717.514C253.653 717.984 250.271 718.242 246.882 718.288C233.263 718.288 221.192 712.891 210.685 702.333C202.435 693.289 197.855 681.495 197.84 669.254C198.019 657.272 202.886 645.837 211.398 637.401C219.909 628.964 231.388 624.198 243.373 624.124C257.01 624.124 269.465 629.958 280.739 641.626C288.529 651.357 292.415 663.426 292.415 678.212C292.415 710.122 283.852 745.538 267.121 784.049C234.031 859.596 193.558 897.369 145.704 897.369C130.28 897.542 115.371 891.823 104.021 881.379Z" fill="#FFADE3" stroke="#26103D" stroke-width="10" mask="url(#path-5-inside-5_1780_1189)"/>
<mask id="path-6-inside-6_1780_1189" fill="white">
<path d="M324.31 590.362C314.182 580.235 309.126 568.561 309.126 555.718C309.156 544.281 313.301 533.236 320.802 524.6C331.308 513.304 343.38 507.854 356.998 507.854C367.532 507.796 377.789 511.217 386.178 517.585C398.645 528.09 404.87 540.537 404.87 555.718C404.855 566.864 400.847 577.636 393.573 586.081C383.066 597.359 371.013 603.205 356.998 603.205C344.875 603.187 333.203 598.601 324.31 590.362ZM329.707 873.249C316.268 859.086 308.873 840.247 309.091 820.726V624.987H356.962C369.807 624.987 381.483 630.042 391.594 639.773C394.154 642.851 396.498 646.103 398.61 649.504C402.891 656.124 404.834 664.685 404.834 674.794V821.103C404.834 844.847 412.228 856.52 426.62 856.52C433.241 856.52 439.861 853.013 445.69 846.412C454.685 836.68 462.044 823.028 468.268 805.166C480.34 805.166 486.168 805.167 486.168 805.544C479.468 825.999 469.192 845.104 455.818 861.97C436.029 885.714 412.642 897.387 386.142 897.387C364.77 897.387 345.701 889.203 329.743 873.249H329.707Z"/>
</mask>
<path d="M324.31 590.362C314.182 580.235 309.126 568.561 309.126 555.718C309.156 544.281 313.301 533.236 320.802 524.6C331.308 513.304 343.38 507.854 356.998 507.854C367.532 507.796 377.789 511.217 386.178 517.585C398.645 528.09 404.87 540.537 404.87 555.718C404.855 566.864 400.847 577.636 393.573 586.081C383.066 597.359 371.013 603.205 356.998 603.205C344.875 603.187 333.203 598.601 324.31 590.362ZM329.707 873.249C316.268 859.086 308.873 840.247 309.091 820.726V624.987H356.962C369.807 624.987 381.483 630.042 391.594 639.773C394.154 642.851 396.498 646.103 398.61 649.504C402.891 656.124 404.834 664.685 404.834 674.794V821.103C404.834 844.847 412.228 856.52 426.62 856.52C433.241 856.52 439.861 853.013 445.69 846.412C454.685 836.68 462.044 823.028 468.268 805.166C480.34 805.166 486.168 805.167 486.168 805.544C479.468 825.999 469.192 845.104 455.818 861.97C436.029 885.714 412.642 897.387 386.142 897.387C364.77 897.387 345.701 889.203 329.743 873.249H329.707Z" fill="#FFADE3" stroke="#26103D" stroke-width="10" mask="url(#path-6-inside-6_1780_1189)"/>
<mask id="path-7-inside-7_1780_1189" fill="white">
<path d="M492.052 857.294C468.305 832.004 456.629 802.828 456.629 769.75V555.341C456.617 543.133 461.367 531.402 469.87 522.64C479.698 513.18 492.802 507.883 506.444 507.854H551.995V630.042C563.13 626.973 574.626 625.406 586.176 625.383C616.148 625.383 643.404 635.492 667.529 655.728C677.873 664.414 686.801 674.658 693.992 686.091C707.512 708.379 714.651 733.952 714.627 760.019C714.627 785.705 709.566 808.663 699.444 828.892C682.317 861.575 653.119 883.376 611.867 894.654C606.038 896.596 597.079 897.388 585.403 897.388C550.034 897.388 518.911 884.149 492.052 857.294ZM603.753 843.3C613.486 825.78 618.541 798.152 618.541 760.792C618.541 731.617 615.033 707.1 608.413 687.638C601.037 667.024 590.909 656.52 578.837 656.52C571.443 656.52 564.822 661.178 559.767 670.514C554.712 679.849 551.995 691.145 551.995 704.69V810.527C551.995 826.104 555.108 838.947 561.71 849.452C567.107 857.618 573.386 861.503 580.798 861.503C588.965 861.593 596.755 855.352 603.699 843.3H603.753Z"/>
</mask>
<path d="M492.052 857.294C468.305 832.004 456.629 802.828 456.629 769.75V555.341C456.617 543.133 461.367 531.402 469.87 522.64C479.698 513.18 492.802 507.883 506.444 507.854H551.995V630.042C563.13 626.973 574.626 625.406 586.176 625.383C616.148 625.383 643.404 635.492 667.529 655.728C677.873 664.414 686.801 674.658 693.992 686.091C707.512 708.379 714.651 733.952 714.627 760.019C714.627 785.705 709.566 808.663 699.444 828.892C682.317 861.575 653.119 883.376 611.867 894.654C606.038 896.596 597.079 897.388 585.403 897.388C550.034 897.388 518.911 884.149 492.052 857.294ZM603.753 843.3C613.486 825.78 618.541 798.152 618.541 760.792C618.541 731.617 615.033 707.1 608.413 687.638C601.037 667.024 590.909 656.52 578.837 656.52C571.443 656.52 564.822 661.178 559.767 670.514C554.712 679.849 551.995 691.145 551.995 704.69V810.527C551.995 826.104 555.108 838.947 561.71 849.452C567.107 857.618 573.386 861.503 580.798 861.503C588.965 861.593 596.755 855.352 603.699 843.3H603.753Z" fill="#FFADE3" stroke="#26103D" stroke-width="10" mask="url(#path-7-inside-7_1780_1189)"/>
<mask id="path-8-inside-8_1780_1189" fill="white">
<path d="M773.437 856.521C745.804 828.892 732.185 796.983 732.185 760.019C731.899 738.54 736.422 717.269 745.425 697.765C759.817 668.565 782.779 647.55 814.31 634.719C830.794 628.239 848.356 624.937 866.068 624.988C895.266 624.988 919.787 633.154 939.253 649.901C947.529 657.17 954.114 666.162 958.549 676.244C962.984 686.327 965.16 697.257 964.925 708.269C964.925 728.055 955.588 746.798 936.518 764.3C913.563 782.593 887.099 791.533 857.127 791.533C847.994 791.512 838.878 790.736 829.872 789.212C829.872 791.155 830.663 796.605 831.814 805.941C834.288 818.443 838.901 830.424 845.451 841.357C858.296 859.255 878.14 868.194 904.208 868.194C923.997 868.194 943.516 860.802 961.776 846.016C974.658 834.41 985.336 820.571 993.295 805.167H1010.42L1010.04 805.545C998.78 834.54 978.432 859.112 952.043 875.587C929.219 889.983 902.751 897.547 875.765 897.388C836.492 897.388 802.635 883.772 773.437 856.521ZM864.521 761.962C875.405 751.853 882.512 740.557 885.534 727.786C886.703 722.731 887.098 709.51 887.098 688.483C887.098 662.42 880.478 649.181 867.633 649.181C858.638 649.181 850.111 655.8 841.547 669.417C833.776 681.492 829.494 700.175 828.702 725.465V761.656C828.702 770.649 832.3 774.876 839.227 774.876C845.451 774.804 854.015 770.524 864.557 761.962H864.521Z"/>
</mask>
<path d="M773.437 856.521C745.804 828.892 732.185 796.983 732.185 760.019C731.899 738.54 736.422 717.269 745.425 697.765C759.817 668.565 782.779 647.55 814.31 634.719C830.794 628.239 848.356 624.937 866.068 624.988C895.266 624.988 919.787 633.154 939.253 649.901C947.529 657.17 954.114 666.162 958.549 676.244C962.984 686.327 965.16 697.257 964.925 708.269C964.925 728.055 955.588 746.798 936.518 764.3C913.563 782.593 887.099 791.533 857.127 791.533C847.994 791.512 838.878 790.736 829.872 789.212C829.872 791.155 830.663 796.605 831.814 805.941C834.288 818.443 838.901 830.424 845.451 841.357C858.296 859.255 878.14 868.194 904.208 868.194C923.997 868.194 943.516 860.802 961.776 846.016C974.658 834.41 985.336 820.571 993.295 805.167H1010.42L1010.04 805.545C998.78 834.54 978.432 859.112 952.043 875.587C929.219 889.983 902.751 897.547 875.765 897.388C836.492 897.388 802.635 883.772 773.437 856.521ZM864.521 761.962C875.405 751.853 882.512 740.557 885.534 727.786C886.703 722.731 887.098 709.51 887.098 688.483C887.098 662.42 880.478 649.181 867.633 649.181C858.638 649.181 850.111 655.8 841.547 669.417C833.776 681.492 829.494 700.175 828.702 725.465V761.656C828.702 770.649 832.3 774.876 839.227 774.876C845.451 774.804 854.015 770.524 864.557 761.962H864.521Z" fill="#FFADE3" stroke="#26103D" stroke-width="10" mask="url(#path-8-inside-8_1780_1189)"/>
<mask id="path-9-inside-9_1780_1189" fill="white">
<path d="M1016.31 887.657C992.181 877.152 980.109 860.424 980.109 838.227C980.109 825.007 984.014 814.502 991.785 806.318C998.33 800.56 1006.82 797.505 1015.53 797.774C1024.38 797.855 1032.92 801.038 1039.66 806.768C1043.23 810.184 1046.08 814.291 1048.02 818.839C1049.96 823.387 1050.96 828.282 1050.95 833.227C1050.97 837.929 1050.06 842.588 1048.25 846.931C1046.45 851.273 1043.79 855.212 1040.45 858.517C1032.73 865.323 1022.71 868.942 1012.42 868.644C1018.92 874.194 1027.26 877.108 1035.81 876.81C1044.52 876.784 1052.99 873.917 1059.93 868.644C1064.64 864.871 1068.43 860.068 1070.99 854.605C1073.55 849.142 1074.83 843.164 1074.72 837.13C1074.53 825.966 1071.31 815.064 1065.38 805.599C1060.33 796.605 1050.2 785.363 1035.41 771.746C1015.97 754.227 1003.9 741.773 999.215 734.387C989.935 721.9 984.892 706.773 984.823 691.217C984.823 673.32 993.386 658.138 1010.89 645.691C1031.53 632.075 1055.65 625.06 1084.08 625.06C1102.75 625.06 1119.48 628.171 1134.27 634.791C1145.57 640.187 1153.73 646.465 1158.79 653.857C1164.64 662.024 1168.13 669.812 1168.52 677.241H1150.23C1149.85 677.241 1149.45 676.467 1149.06 674.525C1144.77 666.34 1137.78 660.135 1127.27 655.836C1121.38 653.253 1115.02 651.929 1108.6 651.951C1100.94 651.812 1093.43 654.132 1087.19 658.57C1079.79 664.398 1076.29 672.564 1076.29 683.069C1076.42 693.891 1079.37 704.491 1084.85 713.827C1090.68 724.332 1101.18 736.383 1116.76 749.999C1135.83 767.519 1148.28 780.362 1153.73 788.528C1162.69 801.022 1167.58 815.968 1167.75 831.338C1167.76 842.769 1163.92 853.871 1156.85 862.852C1152.15 869.837 1145.72 875.473 1138.17 879.203C1119.1 891.272 1095.35 897.496 1066.95 897.496C1049.57 897.74 1032.33 894.39 1016.31 887.657Z"/>
</mask>
<path d="M1016.31 887.657C992.181 877.152 980.109 860.424 980.109 838.227C980.109 825.007 984.014 814.502 991.785 806.318C998.33 800.56 1006.82 797.505 1015.53 797.774C1024.38 797.855 1032.92 801.038 1039.66 806.768C1043.23 810.184 1046.08 814.291 1048.02 818.839C1049.96 823.387 1050.96 828.282 1050.95 833.227C1050.97 837.929 1050.06 842.588 1048.25 846.931C1046.45 851.273 1043.79 855.212 1040.45 858.517C1032.73 865.323 1022.71 868.942 1012.42 868.644C1018.92 874.194 1027.26 877.108 1035.81 876.81C1044.52 876.784 1052.99 873.917 1059.93 868.644C1064.64 864.871 1068.43 860.068 1070.99 854.605C1073.55 849.142 1074.83 843.164 1074.72 837.13C1074.53 825.966 1071.31 815.064 1065.38 805.599C1060.33 796.605 1050.2 785.363 1035.41 771.746C1015.97 754.227 1003.9 741.773 999.215 734.387C989.935 721.9 984.892 706.773 984.823 691.217C984.823 673.32 993.386 658.138 1010.89 645.691C1031.53 632.075 1055.65 625.06 1084.08 625.06C1102.75 625.06 1119.48 628.171 1134.27 634.791C1145.57 640.187 1153.73 646.465 1158.79 653.857C1164.64 662.024 1168.13 669.812 1168.52 677.241H1150.23C1149.85 677.241 1149.45 676.467 1149.06 674.525C1144.77 666.34 1137.78 660.135 1127.27 655.836C1121.38 653.253 1115.02 651.929 1108.6 651.951C1100.94 651.812 1093.43 654.132 1087.19 658.57C1079.79 664.398 1076.29 672.564 1076.29 683.069C1076.42 693.891 1079.37 704.491 1084.85 713.827C1090.68 724.332 1101.18 736.383 1116.76 749.999C1135.83 767.519 1148.28 780.362 1153.73 788.528C1162.69 801.022 1167.58 815.968 1167.75 831.338C1167.76 842.769 1163.92 853.871 1156.85 862.852C1152.15 869.837 1145.72 875.473 1138.17 879.203C1119.1 891.272 1095.35 897.496 1066.95 897.496C1049.57 897.74 1032.33 894.39 1016.31 887.657Z" fill="#FFADE3" stroke="#26103D" stroke-width="10" mask="url(#path-9-inside-9_1780_1189)"/>
<mask id="path-10-inside-10_1780_1189" fill="white">
<path d="M66.547 491.486C47.0816 479.416 37.3673 463.066 37.3673 441.661C37.2036 431.17 40.1858 420.87 45.9303 412.09C52.5327 403.096 61.0961 398.473 71.2247 398.473C75.7472 398.428 80.2339 399.278 84.4266 400.974C88.6192 402.67 92.4349 405.178 95.6538 408.355C98.8727 411.532 101.431 415.314 103.182 419.483C104.933 423.653 105.842 428.127 105.856 432.649C105.918 440.86 102.856 448.788 97.2921 454.828C93.9995 458.3 90.0065 461.032 85.5773 462.843C81.1482 464.654 76.3846 465.502 71.6024 465.332L65.774 464.936C72.3944 473.121 82.8999 478.949 97.2921 482.06C104.533 483.993 111.981 485.038 119.474 485.172C136.997 485.172 151.857 481.683 164.235 475.064C176.306 468.444 182.531 459.109 182.531 447.435C182.531 438.441 177.475 429.537 167.742 420.976C156.067 411.244 138.166 403.852 114.024 398.401C102.475 395.81 91.1531 392.297 80.1662 387.897C54.8719 376.996 42.3867 361.042 42.3867 340.428C42.3867 329.528 45.4984 317.045 52.1188 302.655C33.4269 280.872 24.0898 256.356 24.0898 229.501C24.0898 204.21 32.2576 181.241 49.0065 160.231C74.3008 131.056 105.424 116.27 142.412 116.27L154.088 117.044C157.825 109.954 162.686 103.515 168.48 97.977C181.358 85.6507 198.524 78.8138 216.352 78.9107C227.683 78.7319 238.758 82.2838 247.871 89.0194C252.018 92.1295 255.352 96.1955 257.588 100.871C259.825 105.547 260.898 110.694 260.716 115.874C260.868 120.213 259.867 124.514 257.816 128.34C255.766 132.167 252.737 135.381 249.04 137.657C245.297 139.971 240.991 141.215 236.591 141.255C233.086 141.24 229.621 140.508 226.409 139.104C223.197 137.699 220.307 135.652 217.917 133.088C213.506 128.308 211.008 122.072 210.901 115.569C210.901 109.741 213.24 104.291 217.917 98.8404C219.444 97.1005 221.272 95.6505 223.314 94.5596C219.51 94.9151 215.739 95.5643 212.034 96.5019C205.638 98.0024 199.983 101.725 196.077 107.007C192.06 112.556 189.883 119.224 189.852 126.073C207.157 133.113 222.511 144.219 234.612 158.451C252.116 180.233 260.68 203.976 260.68 229.662C260.68 255.726 251.685 279.865 234.217 301.27C209.318 328.898 178.572 342.892 142.376 342.892C118.988 342.892 96.4468 336.291 74.6426 322.657C74.6426 330.445 81.263 336.669 94.4319 341.723C105.712 346.004 125.951 350.717 155.599 355.358C173.505 358.08 185.96 360.802 192.965 363.524C205.316 367.634 216.875 373.821 227.146 381.817C241.538 394.66 248.554 408.654 248.554 423.835C248.554 436.678 243.877 449.125 234.936 461.195C226.345 472.329 215.46 481.488 203.021 488.05C181.99 500.12 156.696 505.948 127.462 505.948C103.913 505.876 83.6737 501.199 66.547 491.486ZM164.63 284.451C172.024 269.666 175.91 249.826 175.91 224.536C175.91 202.358 172.42 182.499 165.404 165.771C158.783 151.381 151.389 144.366 142.448 144.366C136.601 144.366 130.772 148.27 125.321 155.663C114.419 171.252 108.968 194.209 108.968 224.536C108.968 248.261 112.872 268.893 120.644 285.693C127.265 298.536 134.262 305.155 142.448 305.155C150.633 305.155 158.009 298.068 164.63 284.451Z"/>
</mask>
<path d="M66.547 491.486C47.0816 479.416 37.3673 463.066 37.3673 441.661C37.2036 431.17 40.1858 420.87 45.9303 412.09C52.5327 403.096 61.0961 398.473 71.2247 398.473C75.7472 398.428 80.2339 399.278 84.4266 400.974C88.6192 402.67 92.4349 405.178 95.6538 408.355C98.8727 411.532 101.431 415.314 103.182 419.483C104.933 423.653 105.842 428.127 105.856 432.649C105.918 440.86 102.856 448.788 97.2921 454.828C93.9995 458.3 90.0065 461.032 85.5773 462.843C81.1482 464.654 76.3846 465.502 71.6024 465.332L65.774 464.936C72.3944 473.121 82.8999 478.949 97.2921 482.06C104.533 483.993 111.981 485.038 119.474 485.172C136.997 485.172 151.857 481.683 164.235 475.064C176.306 468.444 182.531 459.109 182.531 447.435C182.531 438.441 177.475 429.537 167.742 420.976C156.067 411.244 138.166 403.852 114.024 398.401C102.475 395.81 91.1531 392.297 80.1662 387.897C54.8719 376.996 42.3867 361.042 42.3867 340.428C42.3867 329.528 45.4984 317.045 52.1188 302.655C33.4269 280.872 24.0898 256.356 24.0898 229.501C24.0898 204.21 32.2576 181.241 49.0065 160.231C74.3008 131.056 105.424 116.27 142.412 116.27L154.088 117.044C157.825 109.954 162.686 103.515 168.48 97.977C181.358 85.6507 198.524 78.8138 216.352 78.9107C227.683 78.7319 238.758 82.2838 247.871 89.0194C252.018 92.1295 255.352 96.1955 257.588 100.871C259.825 105.547 260.898 110.694 260.716 115.874C260.868 120.213 259.867 124.514 257.816 128.34C255.766 132.167 252.737 135.381 249.04 137.657C245.297 139.971 240.991 141.215 236.591 141.255C233.086 141.24 229.621 140.508 226.409 139.104C223.197 137.699 220.307 135.652 217.917 133.088C213.506 128.308 211.008 122.072 210.901 115.569C210.901 109.741 213.24 104.291 217.917 98.8404C219.444 97.1005 221.272 95.6505 223.314 94.5596C219.51 94.9151 215.739 95.5643 212.034 96.5019C205.638 98.0024 199.983 101.725 196.077 107.007C192.06 112.556 189.883 119.224 189.852 126.073C207.157 133.113 222.511 144.219 234.612 158.451C252.116 180.233 260.68 203.976 260.68 229.662C260.68 255.726 251.685 279.865 234.217 301.27C209.318 328.898 178.572 342.892 142.376 342.892C118.988 342.892 96.4468 336.291 74.6426 322.657C74.6426 330.445 81.263 336.669 94.4319 341.723C105.712 346.004 125.951 350.717 155.599 355.358C173.505 358.08 185.96 360.802 192.965 363.524C205.316 367.634 216.875 373.821 227.146 381.817C241.538 394.66 248.554 408.654 248.554 423.835C248.554 436.678 243.877 449.125 234.936 461.195C226.345 472.329 215.46 481.488 203.021 488.05C181.99 500.12 156.696 505.948 127.462 505.948C103.913 505.876 83.6737 501.199 66.547 491.486ZM164.63 284.451C172.024 269.666 175.91 249.826 175.91 224.536C175.91 202.358 172.42 182.499 165.404 165.771C158.783 151.381 151.389 144.366 142.448 144.366C136.601 144.366 130.772 148.27 125.321 155.663C114.419 171.252 108.968 194.209 108.968 224.536C108.968 248.261 112.872 268.893 120.644 285.693C127.265 298.536 134.262 305.155 142.448 305.155C150.633 305.155 158.009 298.068 164.63 284.451Z" fill="#5C59ED" stroke="#26103D" stroke-width="10" mask="url(#path-10-inside-10_1780_1189)"/>
<mask id="path-11-inside-11_1780_1189" fill="white">
<path d="M317.976 354.494C287.231 326.488 272.047 292.636 272.047 252.542C272.038 227.074 279.139 202.11 292.548 180.456C305.957 158.803 325.143 141.321 347.948 129.976C366.6 120.862 387.113 116.2 407.873 116.36C424.748 116.478 441.475 119.521 457.31 125.354C486.922 136.946 511.554 158.516 526.95 186.336C542.346 214.157 547.539 246.481 541.631 277.722C535.723 308.964 519.087 337.161 494.595 357.442C470.104 377.723 439.296 388.813 407.496 388.796C374.411 388.742 344.836 377.464 317.976 354.494ZM433.114 335.428C442.829 314.814 447.902 287.185 447.902 252.542C447.902 224.536 444.393 199.624 436.999 177.841C428.832 155.273 419.099 143.989 407.801 143.989C393.805 143.989 382.507 159.944 374.339 192.231C369.875 212.022 367.655 232.253 367.719 252.542C367.719 278.624 370.832 302.349 377.452 323.376C385.62 347.491 395.736 359.555 407.801 359.566C417.228 359.566 425.774 351.382 433.186 335.428H433.114Z"/>
</mask>
<path d="M317.976 354.494C287.231 326.488 272.047 292.636 272.047 252.542C272.038 227.074 279.139 202.11 292.548 180.456C305.957 158.803 325.143 141.321 347.948 129.976C366.6 120.862 387.113 116.2 407.873 116.36C424.748 116.478 441.475 119.521 457.31 125.354C486.922 136.946 511.554 158.516 526.95 186.336C542.346 214.157 547.539 246.481 541.631 277.722C535.723 308.964 519.087 337.161 494.595 357.442C470.104 377.723 439.296 388.813 407.496 388.796C374.411 388.742 344.836 377.464 317.976 354.494ZM433.114 335.428C442.829 314.814 447.902 287.185 447.902 252.542C447.902 224.536 444.393 199.624 436.999 177.841C428.832 155.273 419.099 143.989 407.801 143.989C393.805 143.989 382.507 159.944 374.339 192.231C369.875 212.022 367.655 232.253 367.719 252.542C367.719 278.624 370.832 302.349 377.452 323.376C385.62 347.491 395.736 359.555 407.801 359.566C417.228 359.566 425.774 351.382 433.186 335.428H433.114Z" fill="#5C59ED" stroke="#26103D" stroke-width="10" mask="url(#path-11-inside-11_1780_1189)"/>
<mask id="path-12-inside-12_1780_1189" fill="white">
<path d="M603.267 354.494C572.521 326.488 557.338 292.636 557.338 252.542C557.33 227.077 564.428 202.114 577.833 180.462C591.239 158.809 610.421 141.325 633.221 129.976C651.879 120.861 672.399 116.2 693.164 116.36C710.039 116.48 726.766 119.523 742.601 125.354C772.215 136.946 796.847 158.518 812.243 186.34C827.638 214.163 832.83 246.488 826.92 277.731C821.01 308.974 804.371 337.171 779.876 357.451C755.381 377.73 724.57 388.817 692.768 388.796C659.684 388.742 630.108 377.464 603.267 354.494ZM718.404 335.428C728.137 314.814 733.193 287.186 733.193 252.542C733.193 224.536 729.703 199.624 722.309 177.841C714.129 155.273 704.397 143.989 693.111 143.989C679.096 143.989 667.816 159.944 659.63 192.231C655.181 212.025 652.967 232.254 653.028 252.542C653.028 278.624 656.141 302.349 662.761 323.376C670.929 347.491 681.045 359.555 693.111 359.566C702.502 359.566 711.065 351.382 718.459 335.428H718.404Z"/>
</mask>
<path d="M603.267 354.494C572.521 326.488 557.338 292.636 557.338 252.542C557.33 227.077 564.428 202.114 577.833 180.462C591.239 158.809 610.421 141.325 633.221 129.976C651.879 120.861 672.399 116.2 693.164 116.36C710.039 116.48 726.766 119.523 742.601 125.354C772.215 136.946 796.847 158.518 812.243 186.34C827.638 214.163 832.83 246.488 826.92 277.731C821.01 308.974 804.371 337.171 779.876 357.451C755.381 377.73 724.57 388.817 692.768 388.796C659.684 388.742 630.108 377.464 603.267 354.494ZM718.404 335.428C728.137 314.814 733.193 287.186 733.193 252.542C733.193 224.536 729.703 199.624 722.309 177.841C714.129 155.273 704.397 143.989 693.111 143.989C679.096 143.989 667.816 159.944 659.63 192.231C655.181 212.025 652.967 232.254 653.028 252.542C653.028 278.624 656.141 302.349 662.761 323.376C670.929 347.491 681.045 359.555 693.111 359.566C702.502 359.566 711.065 351.382 718.459 335.428H718.404Z" fill="#5C59ED" stroke="#26103D" stroke-width="10" mask="url(#path-12-inside-12_1780_1189)"/>
<mask id="path-13-inside-13_1780_1189" fill="white">
<path d="M948.105 386.026C901.781 373.183 870.639 347.497 855.078 308.195C848.223 290.042 844.794 270.776 844.967 251.373C844.714 219.016 855.874 187.605 876.486 162.659C902.95 131.919 934.865 116.36 972.608 116.36L1007.63 116.36V47.0908C1007.72 40.7985 1009.05 34.585 1011.54 28.8075C1014.04 23.03 1017.65 17.8029 1022.17 13.4265C1026.69 9.05004 1032.04 5.6106 1037.9 3.30642C1043.75 1.00224 1050.01 -0.12138 1056.3 0.00010903L1103.07 0.00010903V261.104C1103.17 288.186 1094.42 314.559 1078.16 336.219C1071.23 346.379 1062.53 355.208 1052.47 362.283C1030.06 379.545 1002.54 388.855 974.246 388.742C965.458 388.828 956.688 387.916 948.105 386.026ZM996.679 342.857C1004.07 332.352 1007.96 318.735 1007.96 302.007V147.496C985.777 147.496 970.18 152.568 961.653 162.677C948.034 177.859 941.414 207.808 941.414 252.182C941.414 290.711 946.858 319.119 957.748 337.406C963.595 347.911 970.594 352.965 979.157 352.965C985.454 352.947 991.3 349.44 996.751 342.821L996.679 342.857Z"/>
</mask>
<path d="M948.105 386.026C901.781 373.183 870.639 347.497 855.078 308.195C848.223 290.042 844.794 270.776 844.967 251.373C844.714 219.016 855.874 187.605 876.486 162.659C902.95 131.919 934.865 116.36 972.608 116.36L1007.63 116.36V47.0908C1007.72 40.7985 1009.05 34.585 1011.54 28.8075C1014.04 23.03 1017.65 17.8029 1022.17 13.4265C1026.69 9.05004 1032.04 5.6106 1037.9 3.30642C1043.75 1.00224 1050.01 -0.12138 1056.3 0.00010903L1103.07 0.00010903V261.104C1103.17 288.186 1094.42 314.559 1078.16 336.219C1071.23 346.379 1062.53 355.208 1052.47 362.283C1030.06 379.545 1002.54 388.855 974.246 388.742C965.458 388.828 956.688 387.916 948.105 386.026ZM996.679 342.857C1004.07 332.352 1007.96 318.735 1007.96 302.007V147.496C985.777 147.496 970.18 152.568 961.653 162.677C948.034 177.859 941.414 207.808 941.414 252.182C941.414 290.711 946.858 319.119 957.748 337.406C963.595 347.911 970.594 352.965 979.157 352.965C985.454 352.947 991.3 349.44 996.751 342.821L996.679 342.857Z" fill="#5C59ED" stroke="#26103D" stroke-width="10" mask="url(#path-13-inside-13_1780_1189)"/>
<mask id="path-14-inside-14_1780_1189" fill="white">
<path d="M72.77 859.128C62.2637 849.397 54.8702 835.745 49.8149 819.035L0 602.683C43.1766 602.683 64.6024 602.683 64.6024 603.079C71.4028 604.195 77.897 606.712 83.6722 610.472C95.7437 619.465 104.307 630.258 108.967 643.533C109.362 645.493 117.152 681.684 131.94 752.896C138.543 784.805 142.051 801.911 142.734 804.645C146.332 815.923 151.298 821.373 157.127 821.373C161.408 821.373 169.18 813.98 180.514 799.591C203.834 769.01 219.329 733.196 225.651 695.264C222.3 695.724 218.924 695.982 215.541 696.037C201.923 696.037 189.851 690.641 179.345 680.083C171.095 671.039 166.515 659.244 166.499 647.004C166.678 635.022 171.545 623.587 180.057 615.15C188.569 606.714 200.048 601.948 212.033 601.874C225.646 601.874 238.101 607.708 249.399 619.376C257.188 629.107 261.074 641.176 261.074 655.962C261.074 687.871 252.511 723.27 235.78 761.799C202.702 837.346 162.224 875.119 114.346 875.119C98.9593 875.262 84.0941 869.545 72.77 859.128Z"/>
</mask>
<path d="M72.77 859.128C62.2637 849.397 54.8702 835.745 49.8149 819.035L0 602.683C43.1766 602.683 64.6024 602.683 64.6024 603.079C71.4028 604.195 77.897 606.712 83.6722 610.472C95.7437 619.465 104.307 630.258 108.967 643.533C109.362 645.493 117.152 681.684 131.94 752.896C138.543 784.805 142.051 801.911 142.734 804.645C146.332 815.923 151.298 821.373 157.127 821.373C161.408 821.373 169.18 813.98 180.514 799.591C203.834 769.01 219.329 733.196 225.651 695.264C222.3 695.724 218.924 695.982 215.541 696.037C201.923 696.037 189.851 690.641 179.345 680.083C171.095 671.039 166.515 659.244 166.499 647.004C166.678 635.022 171.545 623.587 180.057 615.15C188.569 606.714 200.048 601.948 212.033 601.874C225.646 601.874 238.101 607.708 249.399 619.376C257.188 629.107 261.074 641.176 261.074 655.962C261.074 687.871 252.511 723.27 235.78 761.799C202.702 837.346 162.224 875.119 114.346 875.119C98.9593 875.262 84.0941 869.545 72.77 859.128Z" fill="#5C59ED" stroke="#26103D" stroke-width="10" mask="url(#path-14-inside-14_1780_1189)"/>
<mask id="path-15-inside-15_1780_1189" fill="white">
<path d="M293.061 568.04C282.95 557.931 277.877 546.257 277.877 533.414C277.918 521.97 282.068 510.92 289.571 502.278C300.077 491 312.13 485.55 325.749 485.55C336.288 485.49 346.552 488.911 354.947 495.281C367.396 505.786 373.621 518.233 373.621 533.414C373.609 544.557 369.608 555.328 362.341 563.776C351.835 575.054 339.763 580.882 325.749 580.882C313.626 580.858 301.957 576.273 293.061 568.04ZM298.458 850.944C285.014 836.783 277.612 817.945 277.823 798.421V602.683H325.695C338.54 602.683 350.216 607.738 360.344 617.469C362.9 620.546 365.239 623.798 367.343 627.2C371.624 633.819 373.567 642.381 373.567 652.49V798.799C373.567 822.542 380.961 834.216 395.372 834.216C401.992 834.216 408.594 830.618 414.441 824.107C423.436 814.376 430.794 800.724 437.019 782.844C449.072 782.844 454.919 782.844 454.919 783.24C448.208 803.694 437.927 822.798 424.551 839.666C404.762 863.41 381.375 875.083 354.894 875.083C333.539 875.083 314.469 866.989 298.512 850.944H298.458Z"/>
</mask>
<path d="M293.061 568.04C282.95 557.931 277.877 546.257 277.877 533.414C277.918 521.97 282.068 510.92 289.571 502.278C300.077 491 312.13 485.55 325.749 485.55C336.288 485.49 346.552 488.911 354.947 495.281C367.396 505.786 373.621 518.233 373.621 533.414C373.609 544.557 369.608 555.328 362.341 563.776C351.835 575.054 339.763 580.882 325.749 580.882C313.626 580.858 301.957 576.273 293.061 568.04ZM298.458 850.944C285.014 836.783 277.612 817.945 277.823 798.421V602.683H325.695C338.54 602.683 350.216 607.738 360.344 617.469C362.9 620.546 365.239 623.798 367.343 627.2C371.624 633.819 373.567 642.381 373.567 652.49V798.799C373.567 822.542 380.961 834.216 395.372 834.216C401.992 834.216 408.594 830.618 414.441 824.107C423.436 814.376 430.794 800.724 437.019 782.844C449.072 782.844 454.919 782.844 454.919 783.24C448.208 803.694 437.927 822.798 424.551 839.666C404.762 863.41 381.375 875.083 354.894 875.083C333.539 875.083 314.469 866.989 298.512 850.944H298.458Z" fill="#5C59ED" stroke="#26103D" stroke-width="10" mask="url(#path-15-inside-15_1780_1189)"/>
<mask id="path-16-inside-16_1780_1189" fill="white">
<path d="M460.821 834.99C437.074 809.699 425.398 780.524 425.398 747.445V533.037C425.386 520.829 430.136 509.097 438.639 500.335C448.463 490.869 461.57 485.57 475.213 485.55H520.747V607.738C531.883 604.672 543.378 603.105 554.928 603.079C584.9 603.079 612.137 613.188 636.28 633.424C646.614 642.112 655.541 652.349 662.743 663.768C676.256 686.065 683.387 711.643 683.36 737.714C683.36 763.4 678.299 786.358 668.176 806.588C651.068 839.271 621.87 861.071 580.618 872.349C574.771 874.292 565.83 875.083 554.154 875.083C518.804 875.083 487.663 861.845 460.821 834.99ZM572.522 820.977C582.237 803.476 587.311 775.847 587.311 738.488C587.311 709.312 583.712 684.795 577.182 665.333C569.788 644.702 559.677 634.197 547.606 634.197C540.212 634.197 533.592 638.874 528.537 648.209C523.481 657.545 520.747 668.841 520.747 682.385V788.223C520.747 803.8 523.859 816.643 530.479 827.147C535.876 835.314 542.155 839.199 549.549 839.199C557.734 839.271 565.506 833.047 572.522 820.977Z"/>
</mask>
<path d="M460.821 834.99C437.074 809.699 425.398 780.524 425.398 747.445V533.037C425.386 520.829 430.136 509.097 438.639 500.335C448.463 490.869 461.57 485.57 475.213 485.55H520.747V607.738C531.883 604.672 543.378 603.105 554.928 603.079C584.9 603.079 612.137 613.188 636.28 633.424C646.614 642.112 655.541 652.349 662.743 663.768C676.256 686.065 683.387 711.643 683.36 737.714C683.36 763.4 678.299 786.358 668.176 806.588C651.068 839.271 621.87 861.071 580.618 872.349C574.771 874.292 565.83 875.083 554.154 875.083C518.804 875.083 487.663 861.845 460.821 834.99ZM572.522 820.977C582.237 803.476 587.311 775.847 587.311 738.488C587.311 709.312 583.712 684.795 577.182 665.333C569.788 644.702 559.677 634.197 547.606 634.197C540.212 634.197 533.592 638.874 528.537 648.209C523.481 657.545 520.747 668.841 520.747 682.385V788.223C520.747 803.8 523.859 816.643 530.479 827.147C535.876 835.314 542.155 839.199 549.549 839.199C557.734 839.271 565.506 833.047 572.522 820.977Z" fill="#5C59ED" stroke="#26103D" stroke-width="10" mask="url(#path-16-inside-16_1780_1189)"/>
<mask id="path-17-inside-17_1780_1189" fill="white">
<path d="M742.224 834.217C714.591 806.588 700.972 774.678 700.972 737.714C700.686 716.235 705.21 694.964 714.213 675.46C728.605 646.273 751.567 625.258 783.098 612.415C799.581 605.932 817.143 602.63 834.856 602.684C864.036 602.684 888.557 610.85 908.022 627.596C925.149 643.185 933.712 662.642 933.712 685.965C933.712 705.751 924.375 724.476 905.305 741.995C882.332 760.289 855.868 769.228 825.896 769.228C816.768 769.21 807.657 768.428 798.659 766.89C798.659 768.851 799.433 774.301 800.602 783.636C803.067 796.132 807.674 808.109 814.221 819.035C827.066 837.023 846.927 845.89 872.995 845.89C892.784 845.89 912.303 838.497 930.564 823.712C943.441 812.094 954.118 798.25 962.083 782.845H979.209L978.813 783.24C967.556 812.234 947.214 836.807 920.831 853.283C898.003 867.671 871.537 875.235 844.552 875.084C805.189 875.084 771.404 861.449 742.224 834.217ZM833.308 739.657C844.192 729.548 851.209 718.252 854.321 705.481C855.472 700.427 855.868 687.188 855.868 666.179C855.868 640.115 849.248 626.877 836.403 626.877C827.408 626.877 818.898 633.496 810.335 647.112C802.551 659.188 798.27 677.871 797.49 703.161V739.279C797.49 748.273 800.998 752.518 807.996 752.518C814.185 752.5 822.766 748.273 833.291 739.657H833.308Z"/>
</mask>
<path d="M742.224 834.217C714.591 806.588 700.972 774.678 700.972 737.714C700.686 716.235 705.21 694.964 714.213 675.46C728.605 646.273 751.567 625.258 783.098 612.415C799.581 605.932 817.143 602.63 834.856 602.684C864.036 602.684 888.557 610.85 908.022 627.596C925.149 643.185 933.712 662.642 933.712 685.965C933.712 705.751 924.375 724.476 905.305 741.995C882.332 760.289 855.868 769.228 825.896 769.228C816.768 769.21 807.657 768.428 798.659 766.89C798.659 768.851 799.433 774.301 800.602 783.636C803.067 796.132 807.674 808.109 814.221 819.035C827.066 837.023 846.927 845.89 872.995 845.89C892.784 845.89 912.303 838.497 930.564 823.712C943.441 812.094 954.118 798.25 962.083 782.845H979.209L978.813 783.24C967.556 812.234 947.214 836.807 920.831 853.283C898.003 867.671 871.537 875.235 844.552 875.084C805.189 875.084 771.404 861.449 742.224 834.217ZM833.308 739.657C844.192 729.548 851.209 718.252 854.321 705.481C855.472 700.427 855.868 687.188 855.868 666.179C855.868 640.115 849.248 626.877 836.403 626.877C827.408 626.877 818.898 633.496 810.335 647.112C802.551 659.188 798.27 677.871 797.49 703.161V739.279C797.49 748.273 800.998 752.518 807.996 752.518C814.185 752.5 822.766 748.273 833.291 739.657H833.308Z" fill="#5C59ED" stroke="#26103D" stroke-width="10" mask="url(#path-17-inside-17_1780_1189)"/>
<mask id="path-18-inside-18_1780_1189" fill="white">
<path d="M985.093 865.352C960.968 854.848 948.896 838.101 948.896 815.923C948.896 802.702 952.783 792.198 960.573 784.014C967.113 778.247 975.603 775.186 984.319 775.452C993.166 775.533 1001.7 778.716 1008.44 784.445C1012.02 787.862 1014.86 791.969 1016.8 796.517C1018.74 801.065 1019.73 805.96 1019.72 810.905C1019.75 815.607 1018.83 820.268 1017.03 824.611C1015.22 828.954 1012.57 832.892 1009.22 836.194C1001.5 843.001 991.491 846.621 981.207 846.322C987.707 851.872 996.051 854.785 1004.59 854.488C1013.31 854.462 1021.78 851.595 1028.72 846.322C1033.43 842.541 1037.21 837.735 1039.77 832.27C1042.33 826.805 1043.61 820.825 1043.51 814.79C1043.32 803.632 1040.09 792.736 1034.17 783.276C1029.1 774.282 1018.99 763.04 1004.2 749.424C984.733 731.904 972.668 719.451 968.002 712.064C958.714 699.582 953.67 684.453 953.61 668.895C953.61 650.907 962.156 635.816 979.678 623.369C1000.31 609.734 1024.44 602.737 1052.84 602.737C1071.54 602.737 1088.27 605.849 1103.05 612.468C1114.33 617.864 1122.52 624.142 1127.58 631.535C1133.41 639.701 1136.91 647.49 1137.31 654.919H1119.01C1118.62 654.919 1118.24 654.145 1117.84 652.184C1113.56 644.018 1106.56 637.794 1096.06 633.513C1090.17 630.932 1083.8 629.609 1077.37 629.628C1069.71 629.5 1062.21 631.819 1055.96 636.247C1048.56 642.075 1045.16 650.242 1045.16 660.746C1045.3 671.563 1048.25 682.157 1053.73 691.486C1059.55 702.009 1070.06 714.061 1085.62 727.677C1104.69 745.197 1117.16 758.04 1122.61 766.206C1131.56 778.702 1136.45 793.648 1136.61 809.016C1136.63 820.445 1132.79 831.547 1125.72 840.53C1121.03 847.518 1114.58 853.155 1107.03 856.88C1087.96 868.949 1064.23 875.173 1035.81 875.173C1018.41 875.425 1001.14 872.082 985.093 865.352Z"/>
</mask>
<path d="M985.093 865.352C960.968 854.848 948.896 838.101 948.896 815.923C948.896 802.702 952.783 792.198 960.573 784.014C967.113 778.247 975.603 775.186 984.319 775.452C993.166 775.533 1001.7 778.716 1008.44 784.445C1012.02 787.862 1014.86 791.969 1016.8 796.517C1018.74 801.065 1019.73 805.96 1019.72 810.905C1019.75 815.607 1018.83 820.268 1017.03 824.611C1015.22 828.954 1012.57 832.892 1009.22 836.194C1001.5 843.001 991.491 846.621 981.207 846.322C987.707 851.872 996.051 854.785 1004.59 854.488C1013.31 854.462 1021.78 851.595 1028.72 846.322C1033.43 842.541 1037.21 837.735 1039.77 832.27C1042.33 826.805 1043.61 820.825 1043.51 814.79C1043.32 803.632 1040.09 792.736 1034.17 783.276C1029.1 774.282 1018.99 763.04 1004.2 749.424C984.733 731.904 972.668 719.451 968.002 712.064C958.714 699.582 953.67 684.453 953.61 668.895C953.61 650.907 962.156 635.816 979.678 623.369C1000.31 609.734 1024.44 602.737 1052.84 602.737C1071.54 602.737 1088.27 605.849 1103.05 612.468C1114.33 617.864 1122.52 624.142 1127.58 631.535C1133.41 639.701 1136.91 647.49 1137.31 654.919H1119.01C1118.62 654.919 1118.24 654.145 1117.84 652.184C1113.56 644.018 1106.56 637.794 1096.06 633.513C1090.17 630.932 1083.8 629.609 1077.37 629.628C1069.71 629.5 1062.21 631.819 1055.96 636.247C1048.56 642.075 1045.16 650.242 1045.16 660.746C1045.3 671.563 1048.25 682.157 1053.73 691.486C1059.55 702.009 1070.06 714.061 1085.62 727.677C1104.69 745.197 1117.16 758.04 1122.61 766.206C1131.56 778.702 1136.45 793.648 1136.61 809.016C1136.63 820.445 1132.79 831.547 1125.72 840.53C1121.03 847.518 1114.58 853.155 1107.03 856.88C1087.96 868.949 1064.23 875.173 1035.81 875.173C1018.41 875.425 1001.14 872.082 985.093 865.352Z" fill="#5C59ED" stroke="#26103D" stroke-width="10" mask="url(#path-18-inside-18_1780_1189)"/>
</g>
<defs>
<clipPath id="clip0_1780_1189">
<rect width="1168.48" height="897.388" fill="white"/>
</clipPath>
</defs>
</svg>
