<svg width="1170" height="899" viewBox="0 0 1170 899" fill="none" xmlns="http://www.w3.org/2000/svg">
<g clip-path="url(#clip0_1780_1178)">
<mask id="path-1-inside-1_1780_1178" fill="white">
<path fill-rule="evenodd" clip-rule="evenodd" d="M1064.67 236.033C1068.51 244.652 1054.85 258.789 1056.65 268.024C1058.4 277.106 1076.38 284.936 1076.23 294.523C1076.09 303.652 1057.89 311.23 1056.1 320.759C1054.39 329.706 1068.74 343.155 1065.65 352.354C1062.74 360.968 1043.14 363.257 1039.05 372.047C1035.2 380.308 1046.2 396.648 1041.37 404.997C1036.78 412.895 1017.09 411.581 1011.64 419.541C1006.45 427.098 1014.87 444.918 1008.93 452.488C1003.28 459.752 983.908 455.882 977.567 463.1C971.499 470.016 977.878 488.677 971.222 495.551C964.809 502.202 945.925 496.456 938.983 503.029C932.305 509.363 936.98 528.526 929.791 534.801C922.814 540.888 904.462 533.67 897.053 539.664C889.849 545.5 893.116 564.958 885.541 570.684C878.131 576.27 860.314 567.799 852.552 573.276C844.954 578.633 846.971 598.248 839.042 603.477C831.284 608.601 814.028 599.045 805.954 604.034C798.039 608.934 798.863 628.644 790.691 633.392C782.628 638.064 765.947 627.539 757.618 632.063C749.428 636.516 749.196 656.24 740.765 660.534C732.449 664.768 716.355 653.365 707.814 657.433C699.273 661.501 698.108 681.137 689.468 684.983C680.828 688.83 665.354 676.6 656.727 680.175C648.099 683.75 645.691 703.389 636.988 706.731C628.147 710.126 613.335 697.099 604.545 700.205C595.61 703.366 592.25 722.764 583.4 725.67C574.379 728.575 560.309 714.761 551.371 717.364C542.268 720.021 537.813 739.242 528.814 741.577C519.622 743.97 506.396 729.344 497.332 731.405C488.059 733.511 482.438 752.416 473.328 754.184C463.98 755.991 451.724 740.535 442.567 741.982C433.163 743.472 426.237 761.943 417.052 763.051C407.578 764.193 396.499 747.881 387.292 748.619C377.762 749.378 369.376 767.236 360.16 767.57C350.586 767.911 341 750.687 331.793 750.571C322.194 750.449 312.093 767.4 302.917 766.776C293.318 766.123 285.706 747.935 276.622 746.729C267.062 745.46 254.859 760.974 245.922 759.095C236.481 757.09 231.675 737.994 222.988 735.312C213.72 732.479 198.899 745.504 190.552 741.901C181.646 738.044 181.234 718.388 173.465 713.673C165.194 708.641 147.38 717.074 140.497 711.063C133.292 704.778 139.495 686.155 133.92 678.774C128.254 671.272 108.631 671.996 104.776 663.336C100.921 654.677 114.591 640.58 112.805 631.342C111.051 622.26 93.0724 614.43 93.221 604.843C93.353 595.709 111.56 588.136 113.346 578.598C115.065 569.66 100.699 556.206 103.805 547.011C106.714 538.398 126.302 536.104 130.399 527.322C134.252 519.057 123.247 502.721 128.075 494.364C132.66 486.466 152.346 487.784 157.808 479.828C162.992 472.271 154.575 454.451 160.513 446.881C166.161 439.62 185.53 443.49 191.879 436.269C197.955 429.35 191.568 410.692 198.232 403.815C204.637 397.167 223.529 402.91 230.471 396.336C237.189 389.985 232.474 370.84 239.663 364.564C246.629 358.473 264.992 365.695 272.398 359.693C279.593 353.861 276.338 334.408 283.913 328.681C291.322 323.095 309.132 331.57 316.902 326.089C324.492 320.736 322.483 301.117 330.404 295.892C338.17 290.764 355.426 300.321 363.492 295.335C371.407 290.435 370.579 270.717 378.763 265.973C386.818 261.305 403.507 271.827 411.824 267.298C420.014 262.846 420.258 243.125 428.689 238.831C437.12 234.537 453.099 246.001 461.636 241.925C470.062 237.918 471.346 218.228 479.978 214.386C488.61 210.543 504.1 222.766 512.716 219.186C521.333 215.607 523.755 195.98 532.466 192.634C541.307 189.24 556.116 202.259 564.905 199.153C573.836 196.003 577.2 176.593 586.046 173.7C595.072 170.783 609.145 184.604 618.083 182.002C627.186 179.345 631.633 160.127 640.64 157.788C649.824 155.399 663.058 170.021 672.122 167.96C681.387 165.858 687.016 146.949 696.126 145.182C705.474 143.374 717.719 158.826 726.876 157.379C736.291 155.893 743.206 137.418 752.402 136.315C761.876 135.173 772.947 151.488 782.162 150.747C791.692 149.988 800.075 132.122 809.294 131.796C818.864 131.447 828.453 148.678 837.661 148.794C847.26 148.916 857.361 131.966 866.537 132.589C876.136 133.243 883.756 151.427 892.84 152.633C902.399 153.902 914.595 138.392 923.54 140.267C932.981 142.272 937.786 161.368 946.471 164.042C955.741 166.883 970.559 153.85 978.91 157.461C987.813 161.31 988.216 180.97 995.989 185.693C1004.26 190.713 1022.08 182.288 1028.96 188.302C1036.17 194.584 1029.96 213.199 1035.54 220.58C1041.19 228.097 1060.83 227.413 1064.67 236.033Z"/>
</mask>
<path fill-rule="evenodd" clip-rule="evenodd" d="M1064.67 236.033C1068.51 244.652 1054.85 258.789 1056.65 268.024C1058.4 277.106 1076.38 284.936 1076.23 294.523C1076.09 303.652 1057.89 311.23 1056.1 320.759C1054.39 329.706 1068.74 343.155 1065.65 352.354C1062.74 360.968 1043.14 363.257 1039.05 372.047C1035.2 380.308 1046.2 396.648 1041.37 404.997C1036.78 412.895 1017.09 411.581 1011.64 419.541C1006.45 427.098 1014.87 444.918 1008.93 452.488C1003.28 459.752 983.908 455.882 977.567 463.1C971.499 470.016 977.878 488.677 971.222 495.551C964.809 502.202 945.925 496.456 938.983 503.029C932.305 509.363 936.98 528.526 929.791 534.801C922.814 540.888 904.462 533.67 897.053 539.664C889.849 545.5 893.116 564.958 885.541 570.684C878.131 576.27 860.314 567.799 852.552 573.276C844.954 578.633 846.971 598.248 839.042 603.477C831.284 608.601 814.028 599.045 805.954 604.034C798.039 608.934 798.863 628.644 790.691 633.392C782.628 638.064 765.947 627.539 757.618 632.063C749.428 636.516 749.196 656.24 740.765 660.534C732.449 664.768 716.355 653.365 707.814 657.433C699.273 661.501 698.108 681.137 689.468 684.983C680.828 688.83 665.354 676.6 656.727 680.175C648.099 683.75 645.691 703.389 636.988 706.731C628.147 710.126 613.335 697.099 604.545 700.205C595.61 703.366 592.25 722.764 583.4 725.67C574.379 728.575 560.309 714.761 551.371 717.364C542.268 720.021 537.813 739.242 528.814 741.577C519.622 743.97 506.396 729.344 497.332 731.405C488.059 733.511 482.438 752.416 473.328 754.184C463.98 755.991 451.724 740.535 442.567 741.982C433.163 743.472 426.237 761.943 417.052 763.051C407.578 764.193 396.499 747.881 387.292 748.619C377.762 749.378 369.376 767.236 360.16 767.57C350.586 767.911 341 750.687 331.793 750.571C322.194 750.449 312.093 767.4 302.917 766.776C293.318 766.123 285.706 747.935 276.622 746.729C267.062 745.46 254.859 760.974 245.922 759.095C236.481 757.09 231.675 737.994 222.988 735.312C213.72 732.479 198.899 745.504 190.552 741.901C181.646 738.044 181.234 718.388 173.465 713.673C165.194 708.641 147.38 717.074 140.497 711.063C133.292 704.778 139.495 686.155 133.92 678.774C128.254 671.272 108.631 671.996 104.776 663.336C100.921 654.677 114.591 640.58 112.805 631.342C111.051 622.26 93.0724 614.43 93.221 604.843C93.353 595.709 111.56 588.136 113.346 578.598C115.065 569.66 100.699 556.206 103.805 547.011C106.714 538.398 126.302 536.104 130.399 527.322C134.252 519.057 123.247 502.721 128.075 494.364C132.66 486.466 152.346 487.784 157.808 479.828C162.992 472.271 154.575 454.451 160.513 446.881C166.161 439.62 185.53 443.49 191.879 436.269C197.955 429.35 191.568 410.692 198.232 403.815C204.637 397.167 223.529 402.91 230.471 396.336C237.189 389.985 232.474 370.84 239.663 364.564C246.629 358.473 264.992 365.695 272.398 359.693C279.593 353.861 276.338 334.408 283.913 328.681C291.322 323.095 309.132 331.57 316.902 326.089C324.492 320.736 322.483 301.117 330.404 295.892C338.17 290.764 355.426 300.321 363.492 295.335C371.407 290.435 370.579 270.717 378.763 265.973C386.818 261.305 403.507 271.827 411.824 267.298C420.014 262.846 420.258 243.125 428.689 238.831C437.12 234.537 453.099 246.001 461.636 241.925C470.062 237.918 471.346 218.228 479.978 214.386C488.61 210.543 504.1 222.766 512.716 219.186C521.333 215.607 523.755 195.98 532.466 192.634C541.307 189.24 556.116 202.259 564.905 199.153C573.836 196.003 577.2 176.593 586.046 173.7C595.072 170.783 609.145 184.604 618.083 182.002C627.186 179.345 631.633 160.127 640.64 157.788C649.824 155.399 663.058 170.021 672.122 167.96C681.387 165.858 687.016 146.949 696.126 145.182C705.474 143.374 717.719 158.826 726.876 157.379C736.291 155.893 743.206 137.418 752.402 136.315C761.876 135.173 772.947 151.488 782.162 150.747C791.692 149.988 800.075 132.122 809.294 131.796C818.864 131.447 828.453 148.678 837.661 148.794C847.26 148.916 857.361 131.966 866.537 132.589C876.136 133.243 883.756 151.427 892.84 152.633C902.399 153.902 914.595 138.392 923.54 140.267C932.981 142.272 937.786 161.368 946.471 164.042C955.741 166.883 970.559 153.85 978.91 157.461C987.813 161.31 988.216 180.97 995.989 185.693C1004.26 190.713 1022.08 182.288 1028.96 188.302C1036.17 194.584 1029.96 213.199 1035.54 220.58C1041.19 228.097 1060.83 227.413 1064.67 236.033Z" fill="#FED33D" stroke="#3B0F46" stroke-width="20" mask="url(#path-1-inside-1_1780_1178)"/>
<path d="M429.847 607.032L414.691 613.779L364.565 501.176L298.464 530.601L348.59 643.204L333.435 649.951L283.309 537.348L260.448 547.525L262.677 528.06L276.446 521.931L250.097 462.742L265.253 455.995L291.601 515.184L357.702 485.759L331.354 426.57L346.51 419.823L429.847 607.032Z" fill="#098AF5"/>
<path d="M473.503 569.449L544.297 537.935L551.04 553.083L465.098 591.341L414.972 478.738L392.112 488.914L394.464 469.727L408.233 463.598L381.761 404.132L467.703 365.874L474.442 381.014L403.649 412.528L423.381 456.855L468.278 436.868L475.017 452.008L430.121 471.995L473.503 569.449Z" fill="#098AF5"/>
<path d="M634.222 516.053L567.527 545.743L484.189 358.534L499.345 351.787L575.94 523.849L627.463 500.912L634.222 516.053Z" fill="#098AF5"/>
<path d="M717.405 479.024L650.757 508.692L567.42 321.483L582.568 314.74L659.162 486.801L710.686 463.865L717.405 479.024Z" fill="#098AF5"/>
<path d="M741.973 239.167C759.131 231.342 778.089 228.316 796.827 230.411C815.252 232.391 832.849 239.103 847.907 249.895C863.209 260.802 874.82 275.15 882.739 292.939C890.56 310.085 893.578 329.032 891.473 347.762C889.481 366.223 882.711 383.847 871.831 398.899C860.847 414.225 845.912 426.287 828.615 433.8C810.801 441.73 792.564 444.627 773.904 442.492C755.483 440.448 737.908 433.666 722.895 422.806C707.569 411.836 695.51 396.912 688.003 379.627C682.249 366.792 679.111 352.938 678.771 338.875C678.393 324.914 680.786 311.015 685.811 297.98C690.769 284.988 698.281 273.12 707.902 263.077C717.575 252.943 729.153 244.818 741.973 239.167ZM748.713 254.307C734.278 260.643 721.786 270.702 712.519 283.452C703.131 296.18 697.39 311.223 695.911 326.964C694.213 342.643 696.712 358.49 703.151 372.884C709.508 387.431 719.663 399.999 732.551 409.271C745.276 418.574 760.251 424.319 775.937 425.915C791.622 427.659 807.489 425.153 821.876 418.66C836.432 412.298 849.011 402.141 858.295 389.253C867.599 376.527 873.348 361.557 874.954 345.879C876.69 330.097 874.146 314.141 867.591 299.682C861.205 285.265 851.102 272.803 838.315 263.572C825.629 254.14 810.613 248.339 794.877 246.79C779.096 245.161 763.164 247.756 748.713 254.307Z" fill="#098AF5"/>
<path d="M217.916 636.19C228.642 631.415 233.468 618.854 228.696 608.135C223.924 597.415 211.361 592.595 200.635 597.369C189.91 602.144 185.083 614.705 189.855 625.425C194.627 636.145 207.191 640.964 217.916 636.19Z" fill="#098AF5"/>
<path d="M966.2 303.087C976.925 298.312 981.752 285.751 976.98 275.031C972.207 264.312 959.644 259.492 948.918 264.266C938.193 269.041 933.367 281.602 938.139 292.322C942.911 303.042 955.474 307.861 966.2 303.087Z" fill="#098AF5"/>
</g>
<defs>
<clipPath id="clip0_1780_1178">
<rect width="1050.74" height="515.119" fill="white" transform="translate(0 428.052) rotate(-23.9966)"/>
</clipPath>
</defs>
</svg>
