<svg width="1991" height="479" viewBox="0 0 1991 479" fill="none" xmlns="http://www.w3.org/2000/svg">
<g clip-path="url(#clip0_1793_64)">
<mask id="path-1-inside-1_1793_64" fill="white">
<path d="M539.412 348.004C527.919 402.614 482.119 441.801 402.01 465.566C385.831 470.426 362.929 473.252 333.302 474.044C324.731 474.044 294.521 473.753 242.674 473.17H77.7969L84.512 441.578C106.923 423.257 128.657 364.769 149.712 266.116L154.093 245.364C156.241 236.198 158.193 227.324 159.949 218.741C179.821 125.758 183.134 64.5448 169.885 35.1008L176.314 1.76123L384.171 3.22206L378.329 35.6878C350.267 50.1231 324.053 114.745 299.685 229.554C282.151 311.469 275.622 369.957 280.099 405.017C307.562 411.809 335.711 415.437 363.998 415.83H365.172C390.895 415.83 408.925 402.673 419.262 376.36C420.184 373.994 420.87 371.543 421.309 369.042C426.177 346.224 408.147 330.237 367.219 321.081C366.747 308.631 367.727 296.169 370.14 283.946C376.582 253.737 393.538 231.438 421.009 217.048C433.021 210.442 446.486 206.924 460.194 206.809C485.126 206.809 510.463 219.192 536.205 243.958C547.506 265.592 548.575 300.274 539.412 348.004Z"/>
</mask>
<path d="M539.412 348.004C527.919 402.614 482.119 441.801 402.01 465.566C385.831 470.426 362.929 473.252 333.302 474.044C324.731 474.044 294.521 473.753 242.674 473.17H77.7969L84.512 441.578C106.923 423.257 128.657 364.769 149.712 266.116L154.093 245.364C156.241 236.198 158.193 227.324 159.949 218.741C179.821 125.758 183.134 64.5448 169.885 35.1008L176.314 1.76123L384.171 3.22206L378.329 35.6878C350.267 50.1231 324.053 114.745 299.685 229.554C282.151 311.469 275.622 369.957 280.099 405.017C307.562 411.809 335.711 415.437 363.998 415.83H365.172C390.895 415.83 408.925 402.673 419.262 376.36C420.184 373.994 420.87 371.543 421.309 369.042C426.177 346.224 408.147 330.237 367.219 321.081C366.747 308.631 367.727 296.169 370.14 283.946C376.582 253.737 393.538 231.438 421.009 217.048C433.021 210.442 446.486 206.924 460.194 206.809C485.126 206.809 510.463 219.192 536.205 243.958C547.506 265.592 548.575 300.274 539.412 348.004Z" fill="#F8DCD8" stroke="#26103D" stroke-width="20" mask="url(#path-1-inside-1_1793_64)"/>
<mask id="path-2-inside-2_1793_64" fill="white">
<path d="M887.02 0H891.415C1003.68 0 1072.28 42.3229 1097.22 126.969C1106.01 168.882 1107.08 205.63 1100.45 237.213C1086.01 305.476 1039.72 369.716 961.57 429.933C906.411 461.516 847.844 477.303 785.869 477.293H759.554C608.307 461.302 544.773 381.275 568.949 237.213C588.631 145.022 654.504 72.8728 766.57 20.7656C809.645 6.94008 849.795 0.0182034 887.02 0ZM758.722 423.229C760.646 423.64 762.61 423.837 764.577 423.816C784.058 423.816 808.712 407.925 838.54 376.142C868.367 344.358 894.19 302.249 916.01 249.815C928.093 221.554 936.765 195.04 942.024 170.275C946.519 149.223 948.421 124.648 947.73 96.5509C947.038 68.454 936.465 52.6625 916.01 49.1765C913.786 48.7996 911.536 48.6033 909.281 48.5895C890.173 48.5895 865.765 64.431 836.056 96.114C806.347 127.797 780.473 169.956 758.435 222.591C746.342 250.87 737.666 277.384 732.407 302.131C727.93 323.183 726.033 347.758 726.715 375.855C727.397 403.952 738.053 419.721 758.681 423.161L758.722 423.229Z"/>
</mask>
<path d="M887.02 0H891.415C1003.68 0 1072.28 42.3229 1097.22 126.969C1106.01 168.882 1107.08 205.63 1100.45 237.213C1086.01 305.476 1039.72 369.716 961.57 429.933C906.411 461.516 847.844 477.303 785.869 477.293H759.554C608.307 461.302 544.773 381.275 568.949 237.213C588.631 145.022 654.504 72.8728 766.57 20.7656C809.645 6.94008 849.795 0.0182034 887.02 0ZM758.722 423.229C760.646 423.64 762.61 423.837 764.577 423.816C784.058 423.816 808.712 407.925 838.54 376.142C868.367 344.358 894.19 302.249 916.01 249.815C928.093 221.554 936.765 195.04 942.024 170.275C946.519 149.223 948.421 124.648 947.73 96.5509C947.038 68.454 936.465 52.6625 916.01 49.1765C913.786 48.7996 911.536 48.6033 909.281 48.5895C890.173 48.5895 865.765 64.431 836.056 96.114C806.347 127.797 780.473 169.956 758.435 222.591C746.342 250.87 737.666 277.384 732.407 302.131C727.93 323.183 726.033 347.758 726.715 375.855C727.397 403.952 738.053 419.721 758.681 423.161L758.722 423.229Z" fill="#F8DCD8" stroke="#26103D" stroke-width="20" mask="url(#path-2-inside-2_1793_64)"/>
<mask id="path-3-inside-3_1793_64" fill="white">
<path d="M1101.03 23.4006H1333.44L1325.55 58.2009C1308.2 65.6188 1294.46 82.4843 1284.34 108.797C1280.24 144.658 1290.08 229.559 1313.86 363.499C1371.36 250.829 1405.37 169.824 1415.9 120.484C1416.81 116.141 1417.5 111.752 1417.94 107.336C1422.21 87.2581 1416.56 68.636 1400.98 51.4702L1407.12 21.6531L1569.09 22.8135L1562.65 51.4839C1525.24 77.2235 1486.94 127.424 1447.75 202.085C1402.54 291.974 1374.86 360.505 1364.73 407.679C1368.63 423.671 1374.09 437.323 1381.1 448.637L1373.2 479.055L1114.48 478.181L1118.86 453.606C1135.83 425.937 1146.06 403.911 1149.55 387.528L1152.19 374.954C1158.42 334.597 1148.97 248.035 1123.83 115.269C1117.58 86.7985 1108.23 65.8418 1095.76 52.3986L1101.03 23.4006Z"/>
</mask>
<path d="M1101.03 23.4006H1333.44L1325.55 58.2009C1308.2 65.6188 1294.46 82.4843 1284.34 108.797C1280.24 144.658 1290.08 229.559 1313.86 363.499C1371.36 250.829 1405.37 169.824 1415.9 120.484C1416.81 116.141 1417.5 111.752 1417.94 107.336C1422.21 87.2581 1416.56 68.636 1400.98 51.4702L1407.12 21.6531L1569.09 22.8135L1562.65 51.4839C1525.24 77.2235 1486.94 127.424 1447.75 202.085C1402.54 291.974 1374.86 360.505 1364.73 407.679C1368.63 423.671 1374.09 437.323 1381.1 448.637L1373.2 479.055L1114.48 478.181L1118.86 453.606C1135.83 425.937 1146.06 403.911 1149.55 387.528L1152.19 374.954C1158.42 334.597 1148.97 248.035 1123.83 115.269C1117.58 86.7985 1108.23 65.8418 1095.76 52.3986L1101.03 23.4006Z" fill="#F8DCD8" stroke="#26103D" stroke-width="20" mask="url(#path-3-inside-3_1793_64)"/>
<mask id="path-4-inside-4_1793_64" fill="white">
<path d="M1717.89 195.641C1751.61 175.954 1784.06 166.111 1815.25 166.111C1845.66 166.111 1870.31 177.907 1889.21 201.498C1894.08 211.838 1895.15 223.142 1892.43 235.411C1888.14 255.489 1871.97 280.933 1843.89 311.743C1818.35 285.812 1794.87 269.825 1773.44 263.781C1760.62 260.616 1747.47 258.949 1734.27 258.812C1721.98 258.812 1712.43 259.981 1705.61 262.32L1691.87 335.116C1677.63 402.004 1696.44 436.136 1748.3 437.51C1767.6 436.154 1788.94 405.841 1812.32 346.57L1944.47 341.887C1929.27 403.297 1888.24 447.749 1821.39 475.246L1494.24 473.198H1484L1491.61 437.51C1498.43 435.571 1504.18 430.893 1508.86 423.475C1537.7 358.744 1558.46 296.552 1571.14 236.899C1585.17 170.821 1590.33 107.655 1586.63 47.4017C1585.89 45.0373 1584.61 42.8798 1582.88 41.1034C1581.15 39.3271 1579.03 37.9817 1576.69 37.176L1584.28 1.50184C1738.84 1.11047 1826.55 0.914795 1847.4 0.914795H1855.88C1955.48 12.2191 2000.01 42.6324 1989.49 92.1548L1988.03 100.346L1852.9 136.621C1855.63 75.5942 1844.62 45.0808 1819.87 45.0808H1811.68C1776.01 45.0808 1746.29 87.1899 1722.52 171.408L1717.89 195.641Z"/>
</mask>
<path d="M1717.89 195.641C1751.61 175.954 1784.06 166.111 1815.25 166.111C1845.66 166.111 1870.31 177.907 1889.21 201.498C1894.08 211.838 1895.15 223.142 1892.43 235.411C1888.14 255.489 1871.97 280.933 1843.89 311.743C1818.35 285.812 1794.87 269.825 1773.44 263.781C1760.62 260.616 1747.47 258.949 1734.27 258.812C1721.98 258.812 1712.43 259.981 1705.61 262.32L1691.87 335.116C1677.63 402.004 1696.44 436.136 1748.3 437.51C1767.6 436.154 1788.94 405.841 1812.32 346.57L1944.47 341.887C1929.27 403.297 1888.24 447.749 1821.39 475.246L1494.24 473.198H1484L1491.61 437.51C1498.43 435.571 1504.18 430.893 1508.86 423.475C1537.7 358.744 1558.46 296.552 1571.14 236.899C1585.17 170.821 1590.33 107.655 1586.63 47.4017C1585.89 45.0373 1584.61 42.8798 1582.88 41.1034C1581.15 39.3271 1579.03 37.9817 1576.69 37.176L1584.28 1.50184C1738.84 1.11047 1826.55 0.914795 1847.4 0.914795H1855.88C1955.48 12.2191 2000.01 42.6324 1989.49 92.1548L1988.03 100.346L1852.9 136.621C1855.63 75.5942 1844.62 45.0808 1819.87 45.0808H1811.68C1776.01 45.0808 1746.29 87.1899 1722.52 171.408L1717.89 195.641Z" fill="#F8DCD8" stroke="#26103D" stroke-width="20" mask="url(#path-4-inside-4_1793_64)"/>
<mask id="path-5-inside-5_1793_64" fill="white">
<path d="M461.615 348.004C450.123 402.614 404.322 441.801 324.213 465.566C308.034 470.426 285.132 473.252 255.505 474.044C246.934 474.044 216.725 473.753 164.877 473.17H0L6.71509 441.578C29.1264 423.257 50.8598 364.769 71.9153 266.116L76.2965 245.364C78.4439 236.198 80.3957 227.324 82.1518 218.741C102.024 125.758 105.337 64.5448 92.0885 35.1008L98.517 1.76123L306.374 3.22206L300.532 35.6878C272.47 50.1231 246.256 114.745 221.888 229.554C204.354 311.469 197.826 369.957 202.302 405.017C229.765 411.809 257.914 415.437 286.201 415.83H287.375C313.099 415.83 331.128 402.673 341.465 376.36C342.387 373.994 343.073 371.543 343.512 369.042C348.38 346.224 330.351 330.237 289.422 321.081C288.95 308.631 289.93 296.169 292.343 283.946C298.785 253.737 315.741 231.438 343.212 217.048C355.225 210.442 368.689 206.924 382.397 206.809C407.329 206.809 432.666 219.192 458.408 243.958C469.709 265.592 470.778 300.274 461.615 348.004Z"/>
</mask>
<path d="M461.615 348.004C450.123 402.614 404.322 441.801 324.213 465.566C308.034 470.426 285.132 473.252 255.505 474.044C246.934 474.044 216.725 473.753 164.877 473.17H0L6.71509 441.578C29.1264 423.257 50.8598 364.769 71.9153 266.116L76.2965 245.364C78.4439 236.198 80.3957 227.324 82.1518 218.741C102.024 125.758 105.337 64.5448 92.0885 35.1008L98.517 1.76123L306.374 3.22206L300.532 35.6878C272.47 50.1231 246.256 114.745 221.888 229.554C204.354 311.469 197.826 369.957 202.302 405.017C229.765 411.809 257.914 415.437 286.201 415.83H287.375C313.099 415.83 331.128 402.673 341.465 376.36C342.387 373.994 343.073 371.543 343.512 369.042C348.38 346.224 330.351 330.237 289.422 321.081C288.95 308.631 289.93 296.169 292.343 283.946C298.785 253.737 315.741 231.438 343.212 217.048C355.225 210.442 368.689 206.924 382.397 206.809C407.329 206.809 432.666 219.192 458.408 243.958C469.709 265.592 470.778 300.274 461.615 348.004Z" fill="#FED33D" stroke="#26103D" stroke-width="20" mask="url(#path-5-inside-5_1793_64)"/>
<mask id="path-6-inside-6_1793_64" fill="white">
<path d="M809.221 0H813.616C925.882 0 994.485 42.3229 1019.43 126.969C1028.21 168.882 1029.28 205.63 1022.65 237.213C1008.22 305.476 961.924 369.716 883.771 429.933C828.612 461.516 770.045 477.303 708.07 477.293H681.755C530.509 461.302 466.974 381.275 491.15 237.213C510.832 145.022 576.705 72.8728 688.771 20.7656C731.846 6.94008 771.996 0.0182034 809.221 0ZM680.923 423.229C682.847 423.64 684.811 423.837 686.778 423.816C706.26 423.816 730.914 407.925 760.741 376.142C790.568 344.358 816.391 302.249 838.211 249.815C850.295 221.554 858.966 195.04 864.225 170.275C868.72 149.223 870.622 124.648 869.931 96.5509C869.239 68.454 858.666 52.6625 838.211 49.1765C835.987 48.7996 833.738 48.6033 831.482 48.5895C812.374 48.5895 787.966 64.431 758.257 96.114C728.548 127.797 702.674 169.956 680.636 222.591C668.543 250.87 659.868 277.384 654.608 302.131C650.131 323.183 648.234 347.758 648.916 375.855C649.599 403.952 660.254 419.721 680.882 423.161L680.923 423.229Z"/>
</mask>
<path d="M809.221 0H813.616C925.882 0 994.485 42.3229 1019.43 126.969C1028.21 168.882 1029.28 205.63 1022.65 237.213C1008.22 305.476 961.924 369.716 883.771 429.933C828.612 461.516 770.045 477.303 708.07 477.293H681.755C530.509 461.302 466.974 381.275 491.15 237.213C510.832 145.022 576.705 72.8728 688.771 20.7656C731.846 6.94008 771.996 0.0182034 809.221 0ZM680.923 423.229C682.847 423.64 684.811 423.837 686.778 423.816C706.26 423.816 730.914 407.925 760.741 376.142C790.568 344.358 816.391 302.249 838.211 249.815C850.295 221.554 858.966 195.04 864.225 170.275C868.72 149.223 870.622 124.648 869.931 96.5509C869.239 68.454 858.666 52.6625 838.211 49.1765C835.987 48.7996 833.738 48.6033 831.482 48.5895C812.374 48.5895 787.966 64.431 758.257 96.114C728.548 127.797 702.674 169.956 680.636 222.591C668.543 250.87 659.868 277.384 654.608 302.131C650.131 323.183 648.234 347.758 648.916 375.855C649.599 403.952 660.254 419.721 680.882 423.161L680.923 423.229Z" fill="#FED33D" stroke="#26103D" stroke-width="20" mask="url(#path-6-inside-6_1793_64)"/>
<mask id="path-7-inside-7_1793_64" fill="white">
<path d="M1023.23 23.4006H1255.64L1247.76 58.2009C1230.4 65.6188 1216.66 82.4843 1206.54 108.797C1202.44 144.658 1212.28 229.559 1236.06 363.499C1293.56 250.829 1327.57 169.824 1338.1 120.484C1339.01 116.141 1339.7 111.752 1340.14 107.336C1344.41 87.2581 1338.76 68.636 1323.18 51.4702L1329.32 21.6531L1491.29 22.8135L1484.85 51.4839C1447.44 77.2235 1409.14 127.424 1369.95 202.085C1324.74 291.974 1297.06 360.505 1286.93 407.679C1290.83 423.671 1296.29 437.323 1303.31 448.637L1295.4 479.055L1036.68 478.181L1041.06 453.606C1058.03 425.937 1068.26 403.911 1071.75 387.528L1074.39 374.954C1080.62 334.597 1071.17 248.035 1046.03 115.269C1039.78 86.7985 1030.43 65.8418 1017.96 52.3986L1023.23 23.4006Z"/>
</mask>
<path d="M1023.23 23.4006H1255.64L1247.76 58.2009C1230.4 65.6188 1216.66 82.4843 1206.54 108.797C1202.44 144.658 1212.28 229.559 1236.06 363.499C1293.56 250.829 1327.57 169.824 1338.1 120.484C1339.01 116.141 1339.7 111.752 1340.14 107.336C1344.41 87.2581 1338.76 68.636 1323.18 51.4702L1329.32 21.6531L1491.29 22.8135L1484.85 51.4839C1447.44 77.2235 1409.14 127.424 1369.95 202.085C1324.74 291.974 1297.06 360.505 1286.93 407.679C1290.83 423.671 1296.29 437.323 1303.31 448.637L1295.4 479.055L1036.68 478.181L1041.06 453.606C1058.03 425.937 1068.26 403.911 1071.75 387.528L1074.39 374.954C1080.62 334.597 1071.17 248.035 1046.03 115.269C1039.78 86.7985 1030.43 65.8418 1017.96 52.3986L1023.23 23.4006Z" fill="#FFADE3" stroke="#26103D" stroke-width="20" mask="url(#path-7-inside-7_1793_64)"/>
<mask id="path-8-inside-8_1793_64" fill="white">
<path d="M1640.09 195.641C1673.81 175.954 1706.26 166.111 1737.45 166.111C1767.86 166.111 1792.51 177.907 1811.41 201.498C1816.28 211.838 1817.35 223.142 1814.63 235.411C1810.34 255.489 1794.17 280.933 1766.1 311.743C1740.55 285.812 1717.07 269.825 1695.64 263.781C1682.82 260.616 1669.67 258.949 1656.47 258.812C1644.18 258.812 1634.63 259.981 1627.81 262.32L1614.08 335.116C1599.84 402.004 1618.64 436.136 1670.5 437.51C1689.8 436.154 1711.14 405.841 1734.53 346.57L1866.67 341.887C1851.47 403.297 1810.44 447.749 1743.59 475.246L1416.44 473.198H1406.21L1413.81 437.51C1420.63 435.571 1426.38 430.893 1431.06 423.475C1459.9 358.744 1480.66 296.552 1493.34 236.899C1507.37 170.821 1512.53 107.655 1508.83 47.4017C1508.09 45.0373 1506.81 42.8798 1505.08 41.1034C1503.36 39.3271 1501.24 37.9817 1498.89 37.176L1506.48 1.50184C1661.04 1.11047 1748.75 0.914795 1769.6 0.914795H1778.08C1877.68 12.2191 1922.21 42.6324 1911.69 92.1548L1910.23 100.346L1775.1 136.621C1777.83 75.5942 1766.82 45.0808 1742.07 45.0808H1733.88C1698.22 45.0808 1668.49 87.1899 1644.72 171.408L1640.09 195.641Z"/>
</mask>
<path d="M1640.09 195.641C1673.81 175.954 1706.26 166.111 1737.45 166.111C1767.86 166.111 1792.51 177.907 1811.41 201.498C1816.28 211.838 1817.35 223.142 1814.63 235.411C1810.34 255.489 1794.17 280.933 1766.1 311.743C1740.55 285.812 1717.07 269.825 1695.64 263.781C1682.82 260.616 1669.67 258.949 1656.47 258.812C1644.18 258.812 1634.63 259.981 1627.81 262.32L1614.08 335.116C1599.84 402.004 1618.64 436.136 1670.5 437.51C1689.8 436.154 1711.14 405.841 1734.53 346.57L1866.67 341.887C1851.47 403.297 1810.44 447.749 1743.59 475.246L1416.44 473.198H1406.21L1413.81 437.51C1420.63 435.571 1426.38 430.893 1431.06 423.475C1459.9 358.744 1480.66 296.552 1493.34 236.899C1507.37 170.821 1512.53 107.655 1508.83 47.4017C1508.09 45.0373 1506.81 42.8798 1505.08 41.1034C1503.36 39.3271 1501.24 37.9817 1498.89 37.176L1506.48 1.50184C1661.04 1.11047 1748.75 0.914795 1769.6 0.914795H1778.08C1877.68 12.2191 1922.21 42.6324 1911.69 92.1548L1910.23 100.346L1775.1 136.621C1777.83 75.5942 1766.82 45.0808 1742.07 45.0808H1733.88C1698.22 45.0808 1668.49 87.1899 1644.72 171.408L1640.09 195.641Z" fill="#FFADE3" stroke="#26103D" stroke-width="20" mask="url(#path-8-inside-8_1793_64)"/>
</g>
<defs>
<clipPath id="clip0_1793_64">
<rect width="1991" height="479" fill="white"/>
</clipPath>
</defs>
</svg>
