<svg width="1242" height="971" viewBox="0 0 1242 971" fill="none" xmlns="http://www.w3.org/2000/svg">
<g filter="url(#filter0_d_1769_672)">
<path d="M1216.03 463L1144.95 507.209L1199.61 570.515L1118.69 592.046L1153.59 668.099L1069.8 667.86L1085.65 750.119L1003.87 731.643L1003.11 815.43L926.052 782.345L911.061 864.843L840.261 819.918L813.096 899.217L749.457 844.648L711.55 919.412L655.788 856.822L608.477 926L561.213 856.822L505.403 919.412L467.544 844.648L403.905 899.217L376.693 819.918L305.892 864.843L290.949 782.345L213.895 815.43L213.083 731.643L131.35 750.071L147.153 667.86L63.3666 668.099L98.2655 592.046L17.344 570.515L72.0555 507.209L0.96875 463L72.0555 418.839L17.344 355.485L98.2655 334.002L63.3666 257.901L147.153 258.14L131.35 175.929L213.131 194.357L213.895 110.57L290.949 143.655L305.892 61.205L376.693 106.082L403.905 26.8309L467.544 81.3998L505.403 6.63611L561.165 69.2256L608.477 0L655.788 69.2256L711.55 6.63611L749.457 81.3998L813.048 26.8309L840.261 106.082L911.061 61.205L926.052 143.655L1003.11 110.57L1003.87 194.357L1085.65 175.929L1069.8 258.14L1153.59 257.949L1118.69 334.002L1199.61 355.485L1144.95 418.839L1216.03 463Z" fill="#5C59ED"/>
</g>
<path d="M310.523 469.254L222.344 455.839L179.377 470.543L172.789 451.447L215.756 436.742L277.008 371.718L284.551 393.727L239.388 439.416L303.075 447.627L310.523 469.254Z" fill="#FED33D"/>
<path d="M386.002 536.809C390.124 546.718 391.413 557.577 389.726 568.175C387.902 579.487 383.2 590.14 376.072 599.112C369.244 608.303 360.17 615.585 349.719 620.261C339.932 624.695 329.112 626.347 318.448 625.036C307.574 623.619 297.283 619.298 288.658 612.527C279.818 605.946 272.937 597.084 268.75 586.89C264.652 576.941 263.364 566.059 265.026 555.428C266.787 544.1 271.459 533.424 278.584 524.444C285.413 515.246 294.509 507.976 304.985 503.342C314.813 498.993 325.646 497.424 336.303 498.806C347.211 500.307 357.516 504.71 366.142 511.553C374.896 518.05 381.753 526.77 386.002 536.809ZM334.585 517.712C327.368 516.813 320.045 518.058 313.531 521.293C306.16 524.968 299.776 530.353 294.912 537C289.773 543.411 286.238 550.957 284.6 559.009C283.138 566.128 283.819 573.521 286.557 580.254C289.446 587.153 294.147 593.141 300.164 597.584C305.936 602.172 312.853 605.094 320.167 606.034C327.357 606.888 334.641 605.627 341.125 602.406C348.496 598.731 354.88 593.345 359.745 586.699C364.884 580.287 368.419 572.742 370.057 564.69C371.51 557.59 370.846 550.219 368.147 543.493C365.341 536.665 360.718 530.738 354.779 526.353C348.994 521.667 342.05 518.632 334.68 517.569L334.585 517.712Z" fill="#FED33D"/>
<path d="M456.515 562.78L435.986 633.629C432.829 641.916 432.829 651.075 435.986 659.362C437.748 662.739 440.223 665.692 443.24 668.017C446.258 670.342 449.745 671.982 453.459 672.825C457.023 674.079 460.817 674.541 464.577 674.178C468.337 673.815 471.972 672.637 475.229 670.724C482.35 665.437 487.292 657.728 489.122 649.049L509.603 578.201L528.7 583.786L508.171 654.635C503.397 671.011 495.663 682.135 484.73 688.055C479.064 691.019 472.856 692.806 466.481 693.306C460.105 693.807 453.695 693.011 447.635 690.967C441.466 689.467 435.668 686.724 430.595 682.907C425.522 679.09 421.281 674.279 418.131 668.767C412.211 657.929 411.638 644.371 416.364 627.995L436.893 557.146L456.515 562.78Z" fill="#FED33D"/>
<path d="M624.327 712.737L594.25 662.561H579.927L579.068 712.165L558.969 711.83L561.212 587.702L605.039 588.466C619.202 588.72 629.896 592.38 637.121 599.446C640.735 603.045 643.545 607.37 645.363 612.135C647.182 616.9 647.97 621.997 647.672 627.089C647.891 635.848 644.806 644.37 639.031 650.96C632.685 657.504 624.23 661.596 615.16 662.513L646.813 713.597L624.327 712.737ZM580.214 647.856L602.413 648.238C618.598 648.525 626.857 641.507 627.096 627.184C627.306 624.267 626.914 621.338 625.945 618.578C624.976 615.819 623.45 613.288 621.462 611.143C616.382 606.834 609.823 604.676 603.177 605.127L581.025 604.746L580.214 647.856Z" fill="#FED33D"/>
<path d="M776 673.35C774.147 679.325 770.598 684.633 765.783 688.628C759.877 693.439 752.875 696.718 745.398 698.176C737.82 700.068 729.924 700.312 722.243 698.892C715.445 697.662 709.089 694.666 703.815 690.203C698.677 685.796 694.901 680.017 692.93 673.541L713.889 668.767C715.613 673.832 719.127 678.093 723.771 680.75C729.008 683.669 735.189 684.39 740.958 682.755C743.503 682.352 745.94 681.438 748.122 680.067C750.305 678.697 752.188 676.9 753.657 674.782C754.912 672.802 755.742 670.584 756.095 668.266C756.449 665.949 756.317 663.583 755.71 661.319C754.974 657.391 752.816 653.872 749.647 651.437C746.552 649.101 742.983 647.471 739.191 646.663C735.276 645.899 730.025 645.183 723.341 644.514C716.574 644.061 709.853 643.071 703.242 641.554C697.914 640.193 692.998 637.555 688.92 633.868C684.153 629.352 680.958 623.43 679.801 616.967C678.273 610.937 678.572 604.589 680.66 598.73C682.866 592.894 686.734 587.832 691.784 584.169C697.64 579.873 704.347 576.878 711.454 575.384C721.874 572.404 733.01 573.182 742.915 577.58C747.11 579.618 750.85 582.483 753.91 586.003C756.97 589.522 759.287 593.624 760.723 598.061L739.621 602.836C737.789 598.492 734.564 594.881 730.455 592.571C725.718 590.051 720.183 589.485 715.034 590.996C710.211 591.847 705.856 594.406 702.765 598.205C701.424 600.1 700.529 602.274 700.149 604.565C699.769 606.855 699.912 609.202 700.569 611.429C701.248 615.217 703.306 618.618 706.345 620.977C709.34 623.184 712.804 624.671 716.466 625.322C720.286 626.086 725.489 626.754 732.03 627.423C738.925 627.893 745.773 628.898 752.511 630.43C758.011 631.815 763.091 634.518 767.311 638.308C772.249 642.947 775.591 649.03 776.859 655.686C778.134 661.547 777.837 667.641 776 673.35Z" fill="#FED33D"/>
<path d="M808.416 560.823L826.223 594.003L866.565 572.424L873.869 586.078L833.528 607.657L851.717 641.649L896.737 617.779L904.471 632.101L841.787 665.52L783.113 555.714L845.798 522.295L853.436 536.617L808.416 560.823Z" fill="#FED33D"/>
<path d="M958.753 566.695L988.448 535.663L999.764 546.5L956.176 591.998L866.422 506.063L880.315 491.74L958.753 566.695Z" fill="#FED33D"/>
<path d="M940.134 376.683L955.698 381.457L940.421 432.588L977.373 443.569L989.977 401.413L1004.82 405.853L992.22 448.009L1044.02 463.477L1038.29 482.574L918.938 447.054L940.134 376.683Z" fill="#FED33D"/>
<path d="M444.486 407.953C449.517 402.507 453.038 395.843 454.703 388.618C460.012 388.946 465.1 390.858 469.311 394.108C466.246 404.358 464.278 414.905 463.439 425.57C450.708 425.316 436.052 425.188 419.47 425.188C401.137 425.188 383.059 425.379 365.236 425.761C365.117 421.813 365.502 417.867 366.381 414.017C369.186 413.949 371.94 413.264 374.449 412.011C375.427 411.366 376.265 410.53 376.913 409.554C377.561 408.578 378.006 407.482 378.221 406.33C379.033 402.245 379.385 398.081 379.271 393.917V327.079C379.382 323.263 379.029 319.447 378.221 315.716C377.736 313.499 376.421 311.551 374.545 310.274C371.995 309.019 369.219 308.288 366.381 308.125C365.535 304.27 365.15 300.327 365.236 296.381C375.07 296.699 384.619 296.874 393.881 296.906C405.338 296.906 414.887 296.731 422.525 296.381C422.72 300.342 422.269 304.309 421.188 308.125C418.438 308.288 415.746 308.985 413.263 310.178C412.313 310.794 411.494 311.592 410.855 312.526C410.216 313.46 409.769 314.512 409.54 315.621C408.727 319.513 408.374 323.487 408.489 327.461V393.249C408.358 397.428 408.808 401.606 409.826 405.662C410.168 406.932 410.768 408.117 411.59 409.144C412.412 410.171 413.436 411.017 414.6 411.63C417.616 412.904 420.877 413.491 424.148 413.348H426.44C432.912 413.816 439.332 411.897 444.486 407.953Z" fill="white"/>
<path d="M510.179 418.696C500.607 413.188 492.831 405.031 487.788 395.207C482.412 384.542 479.725 372.725 479.959 360.785C479.693 348.826 482.521 337.002 488.17 326.458C493.451 316.807 501.387 308.872 511.038 303.59C521.169 298.144 532.526 295.383 544.027 295.57C555.656 295.354 567.152 298.08 577.446 303.495C587.001 308.682 594.883 316.481 600.171 325.981C605.751 336.222 608.565 347.74 608.334 359.4C608.553 371.52 605.782 383.506 600.266 394.3C595.084 404.233 587.209 412.506 577.541 418.17C567.333 424.107 555.691 427.129 543.884 426.907C532.117 427.226 520.48 424.39 510.179 418.696ZM569.903 400.792C575.884 389.408 578.734 376.64 578.162 363.793C578.238 354.118 576.622 344.504 573.388 335.386C570.808 327.578 566.272 320.559 560.211 315C554.99 310.23 548.187 307.56 541.115 307.505C536.57 307.477 532.102 308.667 528.173 310.95C524.243 313.234 520.998 316.528 518.772 320.491C512.645 331.304 509.746 343.648 510.418 356.058C510.323 365.998 511.723 375.896 514.571 385.42C516.82 393.504 521.091 400.881 526.984 406.856C529.655 409.455 532.815 411.497 536.282 412.866C539.748 414.235 543.452 414.902 547.178 414.829C551.921 414.808 556.563 413.46 560.58 410.938C564.596 408.415 567.826 404.818 569.903 400.554V400.792Z" fill="white"/>
<path d="M740.482 296.477C740.499 300.442 739.986 304.392 738.955 308.221C735.569 309.002 732.583 310.987 730.552 313.807C727.427 318.499 724.909 323.568 723.056 328.893C712.553 356.042 699.472 388.204 683.813 425.379C679.602 426.435 675.262 426.885 670.923 426.716C656.76 388.809 643.79 356.759 632.014 330.564C629.15 324.024 626.906 319.345 625.378 316.528C624.278 314.307 622.809 312.289 621.033 310.56C619.512 309.314 617.68 308.506 615.734 308.221C614.65 304.407 614.262 300.428 614.588 296.477C620.27 296.811 629.388 297.002 641.896 297.002C654.404 297.002 663.38 297.002 669.968 296.477C669.975 300.42 669.591 304.354 668.822 308.221C666.187 308.364 663.607 309.029 661.232 310.179C660.45 310.689 659.823 311.404 659.419 312.245C659.015 313.087 658.849 314.023 658.94 314.953C659.488 319.517 660.846 323.947 662.95 328.034C672.499 351.141 680.09 371.765 685.866 389.812C695.224 368.233 703.515 347.194 710.739 326.697C711.799 323.83 712.427 320.821 712.601 317.769C712.601 312.327 709.594 309.176 703.53 308.221C702.542 304.389 702.156 300.427 702.385 296.477C707.159 296.811 713.413 297.002 721.481 297.002C729.549 297.002 735.708 296.811 740.482 296.477Z" fill="white"/>
<path d="M858.166 394.108C855.14 404.368 853.173 414.91 852.294 425.57C839.643 425.331 824.509 425.188 806.797 425.188C789.085 425.188 770.37 425.188 752.563 425.761C752.444 421.813 752.829 417.867 753.708 414.017C756.512 413.949 759.267 413.264 761.776 412.011C762.761 411.374 763.605 410.541 764.254 409.563C764.903 408.586 765.343 407.485 765.548 406.33C766.384 402.248 766.736 398.082 766.598 393.917V327.079C766.746 323.23 766.393 319.379 765.548 315.621C765.069 313.427 763.749 311.507 761.872 310.274C759.327 309.005 756.548 308.274 753.708 308.125C752.788 304.282 752.403 300.33 752.563 296.381C762.445 296.715 776.433 296.906 795.243 296.906C821.023 296.906 838.401 296.731 847.377 296.381C847.631 301.664 848.108 307.346 848.809 313.425C849.309 318.474 850.154 323.482 851.339 328.416C846.84 330.426 841.942 331.389 837.017 331.232C836.31 324.875 833.602 318.906 829.283 314.189C825.225 310.13 818.302 308.125 808.611 308.125H795.53V355.151H801.02C805.86 355.607 810.723 354.574 814.96 352.191C816.375 350.7 817.453 348.923 818.121 346.979C818.788 345.034 819.029 342.969 818.828 340.924C823.182 339.561 827.729 338.916 832.29 339.014C831.765 347.369 831.526 354.578 831.526 360.641C831.526 367.564 831.526 374.964 832.29 382.793C827.88 382.975 823.468 382.476 819.209 381.313C819.218 379.16 818.8 377.027 817.981 375.036C817.161 373.045 815.956 371.236 814.435 369.712C810.309 367.309 805.535 366.257 800.781 366.705H795.291V393.249C795.145 397.432 795.612 401.614 796.675 405.662C797.017 406.932 797.618 408.117 798.44 409.144C799.261 410.171 800.286 411.017 801.45 411.63C804.462 412.917 807.726 413.504 810.998 413.348H813.289C818.474 413.55 823.644 412.672 828.471 410.77C832.153 409.139 835.251 406.424 837.351 402.988C839.968 398.489 842.005 393.676 843.414 388.666C848.784 388.874 853.948 390.779 858.166 394.108Z" fill="white"/>
<defs>
<filter id="filter0_d_1769_672" x="0.96875" y="0" width="1240.06" height="971" filterUnits="userSpaceOnUse" color-interpolation-filters="sRGB">
<feFlood flood-opacity="0" result="BackgroundImageFix"/>
<feColorMatrix in="SourceAlpha" type="matrix" values="0 0 0 0 0 0 0 0 0 0 0 0 0 0 0 0 0 0 127 0" result="hardAlpha"/>
<feOffset dx="25" dy="45"/>
<feComposite in2="hardAlpha" operator="out"/>
<feColorMatrix type="matrix" values="0 0 0 0 0.0980392 0 0 0 0 0.0823529 0 0 0 0 0.290196 0 0 0 1 0"/>
<feBlend mode="normal" in2="BackgroundImageFix" result="effect1_dropShadow_1769_672"/>
<feBlend mode="normal" in="SourceGraphic" in2="effect1_dropShadow_1769_672" result="shape"/>
</filter>
</defs>
</svg>
