<svg width="220" height="200" viewBox="0 0 220 200" fill="none" xmlns="http://www.w3.org/2000/svg">
<g clip-path="url(#clip0_267_65544)">
<rect x="40" width="180" height="10" fill="#62616D"/>
<rect width="220" height="170" fill="#62616D"/>
<rect x="10" y="10" width="10" height="10" fill="black"/>
<rect x="20" y="10" width="20" height="10" fill="black"/>
<rect x="50" y="10" width="100" height="10" fill="black"/>
<rect x="200" y="20" width="20" height="10" fill="#62616D"/>
<rect x="10" y="20" width="20" height="10" fill="black"/>
<rect x="30" y="20" width="10" height="10" fill="black"/>
<rect x="20" y="10" width="10" height="10" fill="black"/>
<rect x="40" y="20" width="110" height="10" fill="black"/>
<rect x="200" y="30" width="20" height="10" fill="#62616D"/>
<rect x="10" y="30" width="10" height="10" fill="black"/>
<rect x="20" y="30" width="20" height="10" fill="black"/>
<rect x="40" y="30" width="10" height="10" fill="black"/>
<rect x="50" y="30" width="100" height="10" fill="black"/>
<rect x="200" y="40" width="20" height="10" fill="#62616D"/>
<rect x="10" y="40" width="140" height="10" fill="black"/>
<rect x="200" y="50" width="20" height="10" fill="#62616D"/>
<rect x="10" y="50" width="140" height="10" fill="black"/>
<rect x="200" y="60" width="20" height="10" fill="#62616D"/>
<rect x="10" y="60" width="140" height="10" fill="black"/>
<rect x="200" y="70" width="20" height="10" fill="#62616D"/>
<rect x="10" y="70" width="140" height="10" fill="black"/>
<rect x="200" y="80" width="20" height="10" fill="#62616D"/>
<rect x="10" y="80" width="140" height="10" fill="black"/>
<rect x="200" y="90" width="20" height="10" fill="#62616D"/>
<rect x="10" y="90" width="140" height="10" fill="black"/>
<rect x="200" y="100" width="20" height="10" fill="#62616D"/>
<rect x="10" y="100" width="140" height="10" fill="black"/>
<rect x="200" y="110" width="20" height="10" fill="#62616D"/>
<rect x="10" y="110" width="140" height="10" fill="black"/>
<rect x="200" y="120" width="20" height="10" fill="#62616D"/>
<rect x="10" y="120" width="140" height="30" fill="black"/>
<rect x="200" y="130" width="20" height="10" fill="#62616D"/>
<rect x="150" y="140" width="70" height="10" fill="#62616D"/>
<rect x="130" y="150" width="10" height="10" fill="#62616D"/>
<rect x="150" y="150" width="70" height="10" fill="#62616D"/>
<rect x="40" y="160" width="180" height="10" fill="#62616D"/>
<rect x="80" y="170" width="60" height="20" fill="#1F1D29"/>
<rect x="60" y="190" width="100" height="10" fill="#62616D"/>
<rect x="150" y="10" width="60" height="140" fill="black"/>
<rect x="30" y="10" width="180" height="10" fill="black"/>
<rect x="190" y="150" width="10" height="10" fill="#1F1D29"/>
<rect x="170" y="150" width="10" height="10" fill="#1F1D29"/>
<rect x="30" y="180" width="10" height="10" fill="#807F7E"/>
<rect x="50" y="180" width="10" height="10" fill="#807F7E"/>
<rect x="70" y="180" width="10" height="10" fill="#807F7E"/>
<rect x="90" y="180" width="10" height="10" fill="#807F7E"/>
<rect x="110" y="180" width="10" height="10" fill="#807F7E"/>
<rect x="130" y="180" width="10" height="10" fill="#807F7E"/>
<rect x="150" y="180" width="10" height="10" fill="#807F7E"/>
<rect x="170" y="180" width="10" height="10" fill="#807F7E"/>
<rect x="190" y="180" width="10" height="10" fill="#807F7E"/>
<path fill-rule="evenodd" clip-rule="evenodd" d="M0 180H30V190H40V180H50V190H60V180H70V190H80V180H90V190H100V180H110V190H120V180H130V190H140V180H150V190H160V180H170V190H180V180H190V190H200V180H220V190V200H210H20H0V190V180Z" fill="#ABAAA8"/>
<rect x="25" y="25" width="170" height="110" stroke="#1929F4" stroke-width="10"/>
<rect x="50" y="50" width="10" height="60" fill="#1929F4"/>
<rect x="140" y="50" width="10" height="40" fill="#1929F4"/>
<rect x="110" y="50" width="10" height="40" fill="#1929F4"/>
<rect x="60" y="50" width="30" height="10" fill="#1929F4"/>
<rect x="150" y="50" width="20" height="10" fill="#1929F4"/>
<rect x="130" y="110" width="40" height="10" fill="#1929F4"/>
<rect x="80" y="80" width="30" height="10" fill="#1929F4"/>
<rect x="40" y="110" width="20" height="20" fill="#FFEF16"/>
<rect x="30" y="60" width="20" height="20" fill="#F78A18"/>
<rect x="170" y="50" width="20" height="20" fill="#FF82AD"/>
<rect x="110" y="30" width="20" height="20" fill="#F3322C"/>
<rect x="40" y="40" width="10" height="10" fill="white"/>
<rect x="90" y="120" width="10" height="10" fill="white"/>
<rect x="60" y="40" width="10" height="10" fill="white"/>
<rect x="110" y="120" width="10" height="10" fill="white"/>
<rect x="110" y="100" width="10" height="10" fill="white"/>
<rect x="130" y="100" width="10" height="10" fill="white"/>
<rect x="150" y="100" width="10" height="10" fill="white"/>
<rect x="170" y="100" width="10" height="10" fill="white"/>
<rect x="170" y="80" width="10" height="10" fill="white"/>
<rect x="80" y="40" width="10" height="10" fill="white"/>
<rect x="80" y="90" width="10" height="20" fill="#1929F4"/>
</g>
<defs>
<clipPath id="clip0_267_65544">
<rect width="220" height="200" fill="white"/>
</clipPath>
</defs>
</svg>
