<svg width="240" height="200" viewBox="0 0 240 200" fill="none" xmlns="http://www.w3.org/2000/svg">
<g clip-path="url(#clip0_267_65777)">
<rect width="30" height="10" transform="matrix(-1 0 0 1 220 180)" fill="#C5B9A1"/>
<rect width="10" height="10" transform="matrix(-1 0 0 1 190 180)" fill="black"/>
<rect width="10" height="10" transform="matrix(-1 0 0 1 180 180)" fill="#C5B9A1"/>
<rect width="10" height="10" transform="matrix(-1 0 0 1 170 180)" fill="black"/>
<rect width="10" height="10" transform="matrix(-1 0 0 1 160 180)" fill="#C5B9A1"/>
<rect width="10" height="10" transform="matrix(-1 0 0 1 150 180)" fill="black"/>
<rect width="10" height="10" transform="matrix(-1 0 0 1 140 180)" fill="#C5B9A1"/>
<rect width="10" height="10" transform="matrix(-1 0 0 1 130 180)" fill="black"/>
<rect width="10" height="10" transform="matrix(-1 0 0 1 120 180)" fill="#C5B9A1"/>
<rect width="10" height="10" transform="matrix(-1 0 0 1 110 180)" fill="black"/>
<rect width="10" height="10" transform="matrix(-1 0 0 1 100 180)" fill="#C5B9A1"/>
<rect width="10" height="10" transform="matrix(-1 0 0 1 90 180)" fill="black"/>
<rect width="10" height="10" transform="matrix(-1 0 0 1 80 180)" fill="#C5B9A1"/>
<rect width="10" height="10" transform="matrix(-1 0 0 1 70 180)" fill="black"/>
<rect width="10" height="10" transform="matrix(-1 0 0 1 60 180)" fill="#C5B9A1"/>
<rect width="10" height="10" transform="matrix(-1 0 0 1 50 180)" fill="black"/>
<rect width="10" height="10" transform="matrix(-1 0 0 1 40 180)" fill="#C5B9A1"/>
<rect width="10" height="10" transform="matrix(-1 0 0 1 30 180)" fill="black"/>
<rect width="20" height="10" transform="matrix(-1 0 0 1 20 180)" fill="#C5B9A1"/>
<rect width="20" height="10" transform="matrix(-1 0 0 1 220 190)" fill="#C5B9A1"/>
<rect width="190" height="10" transform="matrix(-1 0 0 1 200 190)" fill="#C5B9A1"/>
<rect width="10" height="10" transform="matrix(-1 0 0 1 10 190)" fill="#C5B9A1"/>
<rect width="180" height="10" transform="matrix(-1 0 0 1 200 0)" fill="#C5B9A1"/>
<rect width="180" height="10" transform="matrix(-1 0 0 1 200 10)" fill="#C5B9A1"/>
<rect width="40" height="10" transform="matrix(-1 0 0 1 220 20)" fill="#C5B9A1"/>
<rect width="20" height="10" transform="matrix(-1 0 0 1 40 20)" fill="#C5B9A1"/>
<rect width="60" height="10" transform="matrix(-1 0 0 1 240 30)" fill="#C5B9A1"/>
<rect width="20" height="10" transform="matrix(-1 0 0 1 40 30)" fill="#C5B9A1"/>
<rect width="60" height="10" transform="matrix(-1 0 0 1 240 40)" fill="#C5B9A1"/>
<rect width="20" height="10" transform="matrix(-1 0 0 1 40 40)" fill="#C5B9A1"/>
<rect width="60" height="10" transform="matrix(-1 0 0 1 240 50)" fill="#C5B9A1"/>
<rect width="20" height="10" transform="matrix(-1 0 0 1 40 50)" fill="#C5B9A1"/>
<rect width="60" height="10" transform="matrix(-1 0 0 1 240 60)" fill="#C5B9A1"/>
<rect width="20" height="10" transform="matrix(-1 0 0 1 40 60)" fill="#C5B9A1"/>
<rect width="60" height="10" transform="matrix(-1 0 0 1 240 70)" fill="#C5B9A1"/>
<rect width="20" height="10" transform="matrix(-1 0 0 1 40 70)" fill="#C5B9A1"/>
<rect width="60" height="10" transform="matrix(-1 0 0 1 240 80)" fill="#C5B9A1"/>
<rect width="20" height="10" transform="matrix(-1 0 0 1 40 80)" fill="#C5B9A1"/>
<rect width="20" height="10" transform="matrix(-1 0 0 1 240 90)" fill="#9D8E6E"/>
<rect width="40" height="10" transform="matrix(-1 0 0 1 220 90)" fill="#C5B9A1"/>
<rect width="20" height="10" transform="matrix(-1 0 0 1 40 90)" fill="#C5B9A1"/>
<rect width="60" height="10" transform="matrix(-1 0 0 1 240 100)" fill="#C5B9A1"/>
<rect width="20" height="10" transform="matrix(-1 0 0 1 40 100)" fill="#C5B9A1"/>
<rect width="20" height="10" transform="matrix(-1 0 0 1 240 110)" fill="#9D8E6E"/>
<rect width="40" height="10" transform="matrix(-1 0 0 1 220 110)" fill="#C5B9A1"/>
<rect width="20" height="10" transform="matrix(-1 0 0 1 40 110)" fill="#C5B9A1"/>
<rect width="60" height="10" transform="matrix(-1 0 0 1 240 120)" fill="#C5B9A1"/>
<rect width="20" height="10" transform="matrix(-1 0 0 1 40 120)" fill="#C5B9A1"/>
<rect width="20" height="10" transform="matrix(-1 0 0 1 240 130)" fill="#9D8E6E"/>
<rect width="40" height="10" transform="matrix(-1 0 0 1 220 130)" fill="#C5B9A1"/>
<path d="M180 20V140H40V20H180Z" fill="black"/>
<rect width="20" height="10" transform="matrix(-1 0 0 1 40 130)" fill="#C5B9A1"/>
<rect width="130" height="10" transform="matrix(-1 0 0 1 240 140)" fill="#C5B9A1"/>
<rect width="10" height="10" transform="matrix(-1 0 0 1 110 140)" fill="black"/>
<rect width="80" height="10" transform="matrix(-1 0 0 1 100 140)" fill="#C5B9A1"/>
<rect width="100" height="10" transform="matrix(-1 0 0 1 220 150)" fill="#C5B9A1"/>
<rect width="10" height="10" transform="matrix(-1 0 0 1 120 150)" fill="black"/>
<rect width="10" height="10" transform="matrix(-1 0 0 1 110 150)" fill="#C5B9A1"/>
<rect width="10" height="10" transform="matrix(-1 0 0 1 100 150)" fill="black"/>
<rect width="70" height="10" transform="matrix(-1 0 0 1 90 150)" fill="#C5B9A1"/>
<rect width="180" height="10" transform="matrix(-1 0 0 1 200 160)" fill="#C5B9A1"/>
<rect width="140" height="10" transform="matrix(-1 0 0 1 180 170)" fill="#9D8E6E"/>
<rect x="55" y="35" width="110" height="90" stroke="#1929F4" stroke-width="10"/>
<rect x="80" y="60" width="10" height="40" fill="#1929F4"/>
<rect x="130" y="60" width="10" height="40" fill="#1929F4"/>
<rect x="90" y="60" width="20" height="10" fill="#1929F4"/>
<rect x="110" y="90" width="20" height="10" fill="#1929F4"/>
<rect x="70" y="100" width="20" height="20" fill="#FFEF16"/>
<rect x="60" y="70" width="20" height="20" fill="#F78A18"/>
<rect x="140" y="40" width="20" height="20" fill="#F3322C"/>
<rect x="100" y="110" width="10" height="10" fill="white"/>
<rect x="70" y="50" width="10" height="10" fill="white"/>
<rect x="120" y="110" width="10" height="10" fill="white"/>
<rect x="90" y="50" width="10" height="10" fill="white"/>
<rect x="140" y="110" width="10" height="10" fill="white"/>
<rect x="110" y="50" width="10" height="10" fill="white"/>
</g>
<defs>
<clipPath id="clip0_267_65777">
<rect width="240" height="200" fill="white" transform="matrix(-1 0 0 1 240 0)"/>
</clipPath>
</defs>
</svg>
