<svg width="240" height="200" viewBox="0 0 240 200" fill="none" xmlns="http://www.w3.org/2000/svg">
<path d="M40 20H50V30H40V20Z" fill="#FDF8FF"/>
<path d="M70 20H80V30H70V20Z" fill="#FDF8FF"/>
<path d="M60 30H70V40H60V30Z" fill="#FDF8FF"/>
<path d="M40 40H50V50H40V40Z" fill="#FDF8FF"/>
<path d="M70 40H80V50H70V40Z" fill="#FDF8FF"/>
<path fill-rule="evenodd" clip-rule="evenodd" d="M80 20H180V140H40V50H50V40H40V30H50V20H70V30H80V20ZM70 40V30H60V40H70ZM70 40V50H80V40H70Z" fill="#1929F4"/>
<path fill-rule="evenodd" clip-rule="evenodd" d="M200 0H20V170H200V160H220V150H240V140H220V130H240V120H220V110H240V100H220V90H240V30H220V20H200V0ZM120 160H110V150H100V160H90V150H100V140H40V20H180V140H110V150H120V160Z" fill="#C5B9A1"/>
<path d="M220 180H190V190H180V180H170V190H160V180H150V190H140V180H130V190H120V180H110V190H100V180H90V190H80V180H70V190H60V180H50V190H40V180H30V190H20V180H0V200H220V180Z" fill="#C5B9A1"/>
<path d="M180 170H40V180H180V170Z" fill="#9D8E6E"/>
<path d="M240 90H220V100H240V90Z" fill="black"/>
<path d="M240 110H220V120H240V110Z" fill="black"/>
<path d="M220 130H240V140H220V130Z" fill="black"/>
<path d="M100 140H110V150H120V160H110V150H100V160H90V150H100V140Z" fill="black"/>
<path d="M180 180H190V190H180V180Z" fill="black"/>
<path d="M160 180H170V190H160V180Z" fill="black"/>
<path d="M150 180H140V190H150V180Z" fill="black"/>
<path d="M120 180H130V190H120V180Z" fill="black"/>
<path d="M110 180H100V190H110V180Z" fill="black"/>
<path d="M80 180H90V190H80V180Z" fill="black"/>
<path d="M70 180H60V190H70V180Z" fill="black"/>
<path d="M40 180H50V190H40V180Z" fill="black"/>
<path d="M30 180H20V190H30V180Z" fill="black"/>
</svg>
