<svg width="630" height="510" viewBox="0 0 630 510" fill="none" xmlns="http://www.w3.org/2000/svg">
<g clip-path="url(#clip0_9_2)">
<path fill-rule="evenodd" clip-rule="evenodd" d="M0 0H630V510H0V0Z" fill="#D9D9D9"/>
<path d="M220.5 241.5H247.5V243.75H243V255H247.5V257.25H220.5V255H225V243.75H220.5V241.5ZM229.5 243.75V255H238.5V243.75H229.5ZM218.25 264H249.75V266.25H218.25V264ZM254.25 241.5H270V252.75H258.75V264H265.5V261.75H270V264H267.75V266.25H256.5V264H254.25V250.5H265.5V243.75H254.25V241.5ZM270 252.75H274.5V239.25H279V268.5H274.5V255H270V252.75ZM281.25 239.25H285.75V268.5H281.25V239.25ZM290.25 243.75H292.5V241.5H294.75V239.25H303.75V241.5H306V243.75H308.25V250.5H306V252.75H303.75V255H294.75V252.75H292.5V250.5H290.25V243.75ZM294.75 243.75V250.5H297V252.75H301.5V250.5H303.75V243.75H301.5V241.5H297V243.75H294.75ZM315 239.25H319.5V255H315V239.25ZM292.5 257.25H319.5V266.25H317.25V268.5H294.75V266.25H292.5V257.25ZM297 259.5V266.25H315V259.5H297ZM344.25 241.5H362.25V243.75H355.5V259.5H357.75V261.75H360V264H362.25V266.25H357.75V264H355.5V261.75H351V264H348.75V266.25H344.25V264H346.5V261.75H348.75V259.5H351V243.75H344.25V241.5ZM360 252.75H364.5V239.25H369V268.5H364.5V255H360V252.75ZM371.25 239.25H375.75V268.5H371.25V239.25ZM380.25 241.5H393.75V261.75H391.5V264H389.25V266.25H382.5V264H387V261.75H389.25V243.75H380.25V241.5ZM398.25 252.75H405V239.25H409.5V268.5H405V255H398.25V252.75Z" fill="black"/>
</g>
<defs>
<clipPath id="clip0_9_2">
<rect width="630" height="510" fill="white"/>
</clipPath>
</defs>
</svg>
