<svg width="420" height="510" viewBox="0 0 420 510" fill="none" xmlns="http://www.w3.org/2000/svg">
<g clip-path="url(#clip0_10_2)">
<path fill-rule="evenodd" clip-rule="evenodd" d="M0.424973 0.349792H419.669L419.575 509.65H0.330872L0.424973 0.349792Z" fill="#D9D9D9"/>
<path d="M115.5 241.5H142.5V243.75H138V255H142.5V257.25H115.5V255H120V243.75H115.5V241.5ZM124.5 243.75V255H133.5V243.75H124.5ZM113.25 264H144.75V266.25H113.25V264ZM149.25 241.5H165V252.75H153.75V264H160.5V261.75H165V264H162.75V266.25H151.5V264H149.25V250.5H160.5V243.75H149.25V241.5ZM165 252.75H169.5V239.25H174V268.5H169.5V255H165V252.75ZM176.25 239.25H180.75V268.5H176.25V239.25ZM185.25 243.75H187.5V241.5H189.75V239.25H198.75V241.5H201V243.75H203.25V250.5H201V252.75H198.75V255H189.75V252.75H187.5V250.5H185.25V243.75ZM189.75 243.75V250.5H192V252.75H196.5V250.5H198.75V243.75H196.5V241.5H192V243.75H189.75ZM210 239.25H214.5V255H210V239.25ZM187.5 257.25H214.5V266.25H212.25V268.5H189.75V266.25H187.5V257.25ZM192 259.5V266.25H210V259.5H192ZM239.25 241.5H257.25V243.75H250.5V259.5H252.75V261.75H255V264H257.25V266.25H252.75V264H250.5V261.75H246V264H243.75V266.25H239.25V264H241.5V261.75H243.75V259.5H246V243.75H239.25V241.5ZM255 252.75H259.5V239.25H264V268.5H259.5V255H255V252.75ZM266.25 239.25H270.75V268.5H266.25V239.25ZM275.25 241.5H288.75V261.75H286.5V264H284.25V266.25H277.5V264H282V261.75H284.25V243.75H275.25V241.5ZM293.25 252.75H300V239.25H304.5V268.5H300V255H293.25V252.75Z" fill="black"/>
</g>
<defs>
<clipPath id="clip0_10_2">
<rect width="420" height="510" fill="white"/>
</clipPath>
</defs>
</svg>
