<svg width="330" height="510" viewBox="0 0 330 510" fill="none" xmlns="http://www.w3.org/2000/svg">
<g clip-path="url(#clip0_6_2)">
<path fill-rule="evenodd" clip-rule="evenodd" d="M-8 0H338V510H-8V0Z" fill="#D9D9D9"/>
<path d="M70.5 241.5H97.5V243.75H93V255H97.5V257.25H70.5V255H75V243.75H70.5V241.5ZM79.5 243.75V255H88.5V243.75H79.5ZM68.25 264H99.75V266.25H68.25V264ZM104.25 241.5H120V252.75H108.75V264H115.5V261.75H120V264H117.75V266.25H106.5V264H104.25V250.5H115.5V243.75H104.25V241.5ZM120 252.75H124.5V239.25H129V268.5H124.5V255H120V252.75ZM131.25 239.25H135.75V268.5H131.25V239.25ZM140.25 243.75H142.5V241.5H144.75V239.25H153.75V241.5H156V243.75H158.25V250.5H156V252.75H153.75V255H144.75V252.75H142.5V250.5H140.25V243.75ZM144.75 243.75V250.5H147V252.75H151.5V250.5H153.75V243.75H151.5V241.5H147V243.75H144.75ZM165 239.25H169.5V255H165V239.25ZM142.5 257.25H169.5V266.25H167.25V268.5H144.75V266.25H142.5V257.25ZM147 259.5V266.25H165V259.5H147ZM194.25 241.5H212.25V243.75H205.5V259.5H207.75V261.75H210V264H212.25V266.25H207.75V264H205.5V261.75H201V264H198.75V266.25H194.25V264H196.5V261.75H198.75V259.5H201V243.75H194.25V241.5ZM210 252.75H214.5V239.25H219V268.5H214.5V255H210V252.75ZM221.25 239.25H225.75V268.5H221.25V239.25ZM230.25 241.5H243.75V261.75H241.5V264H239.25V266.25H232.5V264H237V261.75H239.25V243.75H230.25V241.5ZM248.25 252.75H255V239.25H259.5V268.5H255V255H248.25V252.75Z" fill="black"/>
</g>
<defs>
<clipPath id="clip0_6_2">
<rect width="330" height="510" fill="white"/>
</clipPath>
</defs>
</svg>
