<svg width="131" height="110" viewBox="0 0 131 110" fill="none" xmlns="http://www.w3.org/2000/svg">
<rect x="60.5" y="100" width="10" height="10" fill="#F3322C"/>
<rect x="50.5" y="90" width="30" height="10" fill="#F3322C"/>
<rect x="40.5" y="80" width="50" height="10" fill="#F3322C"/>
<rect x="30.5" y="70" width="70" height="10" fill="#F3322C"/>
<rect x="20.5" y="60" width="90" height="10" fill="#F3322C"/>
<rect x="10.5" y="50" width="110" height="10" fill="#F3322C"/>
<rect x="10.5" y="10" width="50" height="10" fill="#F3322C"/>
<rect x="20.5" width="30" height="10" fill="#F3322C"/>
<rect x="80.5" width="30" height="10" fill="#F3322C"/>
<rect x="70.5" y="10" width="50" height="10" fill="#F3322C"/>
<rect x="0.5" y="40" width="130" height="10" fill="#F3322C"/>
<rect x="0.5" y="30" width="130" height="10" fill="#F3322C"/>
<rect x="0.5" y="20" width="130" height="10" fill="#F3322C"/>
<rect x="100.5" y="20" width="10" height="10" fill="white"/>
<rect x="110.5" y="30" width="10" height="10" fill="white"/>
</svg>
