<svg width="240" height="290" viewBox="0 0 240 290" fill="none" xmlns="http://www.w3.org/2000/svg">
<path fill-rule="evenodd" clip-rule="evenodd" d="M170 140V130H190V120H182V100H190V90H140V100H150V120H140V130H160V140H110V130H120V120H130V100H120V90H90V100H80V120H90V130H100V140H75V150H195V140H170ZM90 120V100H120V120H90ZM160 120H172V100H160V120Z" fill="black"/>
<path d="M165 165V170H155V180H140V190H190V180H165V175H175V165H190V155H140V165H165Z" fill="black"/>
<path d="M130 180H90V160H80V190H130V180Z" fill="black"/>
<path fill-rule="evenodd" clip-rule="evenodd" d="M0 0H220V30H240V290H30V270H0V0ZM220 60V220H50V60H220ZM10 10V260H30V30H210V10H10Z" fill="black"/>
</svg>
