<svg width="336" height="336" viewBox="0 0 336 336" fill="current" xmlns="http://www.w3.org/2000/svg">
<rect width="14" height="154" transform="matrix(4.37114e-08 1 1 -4.37114e-08 91 84)" fill="current"/>
<path d="M154 70H140V84H154V70Z" fill="current"/>
<path d="M196 70H182V84H196V70Z" fill="current"/>
<path d="M182 56H154V70H182V56Z" fill="current"/>
<path d="M77 111L77 125L259 125L259 111L77 111Z" fill="current"/>
<path d="M259 98H245V112H259V98Z" fill="current"/>
<path d="M91 97H77V111H91V97Z" fill="current"/>
<rect width="140" height="14" transform="matrix(4.37114e-08 1 1 -4.37114e-08 91 125)" fill="current"/>
<rect width="115" height="14" transform="matrix(4.37114e-08 1 1 -4.37114e-08 133 137)" fill="current"/>
<rect width="115" height="14" transform="matrix(4.37114e-08 1 1 -4.37114e-08 161 137)" fill="current"/>
<rect width="115" height="14" transform="matrix(4.37114e-08 1 1 -4.37114e-08 189 137)" fill="current"/>
<rect width="140" height="14" transform="matrix(4.37114e-08 1 1 -4.37114e-08 231 125)" fill="current"/>
<path d="M105 265L105 279L231 279L231 265L105 265Z" fill="current"/>
</svg>
