<svg width="336" height="336" viewBox="0 0 336 336" fill="current" xmlns="http://www.w3.org/2000/svg">
<rect width="112" height="14" transform="matrix(4.37114e-08 1 1 -4.37114e-08 84 154)" fill="current"/>
<rect width="112" height="14" transform="matrix(4.37114e-08 1 1 -4.37114e-08 238 154)" fill="current"/>
<path d="M84 266L84 280L252 280L252 266L84 266Z" fill="current"/>
<path d="M70 140H266V154H70V140Z" fill="current"/>
<path d="M84 126H252V140H84V126Z" fill="current"/>
<path d="M98 112H238V126H98V112Z" fill="current"/>
<path d="M112 98H224V112H112V98Z" fill="current"/>
<path d="M126 84H210V98H126V84Z" fill="current"/>
<path d="M140 70H196V84H140V70Z" fill="current"/>
<path d="M126 196H210V210H126V196Z" fill="current"/>
<path d="M154 56H182V70H154V56Z" fill="current"/>
<path d="M126 210H140V266H126V210Z" fill="current"/>
<path d="M196 210H210V266H196V210Z" fill="current"/>
</svg>
