<svg width="336" height="336" viewBox="0 0 336 336" fill="current" xmlns="http://www.w3.org/2000/svg">
<rect width="14" height="42" transform="matrix(-1 0 0 1 91 147)" fill="current"/>
<rect width="14" height="70" transform="matrix(4.37114e-08 1 1 -4.37114e-08 91 189)" fill="current"/>
<rect width="28" height="14" transform="matrix(4.37114e-08 1 1 -4.37114e-08 161 105)" fill="current"/>
<rect width="14" height="28" transform="matrix(4.37114e-08 1 1 -4.37114e-08 189 105)" fill="current"/>
<rect width="14" height="28" transform="matrix(4.37114e-08 1 1 -4.37114e-08 203 119)" fill="current"/>
<rect width="14" height="28" transform="matrix(4.37114e-08 1 1 -4.37114e-08 189 217)" fill="current"/>
<rect width="14" height="28" transform="matrix(4.37114e-08 1 1 -4.37114e-08 203 203)" fill="current"/>
<rect width="14" height="28" transform="matrix(4.37114e-08 1 1 -4.37114e-08 217 189)" fill="current"/>
<rect width="14" height="14" transform="matrix(4.37114e-08 1 1 -4.37114e-08 231 175)" fill="current"/>
<rect width="42" height="14" transform="matrix(4.37114e-08 1 1 -4.37114e-08 245 147)" fill="current"/>
<rect width="14" height="28" transform="matrix(4.37114e-08 1 1 -4.37114e-08 217 133)" fill="current"/>
<rect width="14" height="14" transform="matrix(4.37114e-08 1 1 -4.37114e-08 231 147)" fill="current"/>
<rect width="28" height="14" transform="matrix(4.37114e-08 1 1 -4.37114e-08 161 203)" fill="current"/>
<rect width="14" height="70" transform="matrix(4.37114e-08 1 1 -4.37114e-08 91 133)" fill="current"/>
<rect width="42" height="14" transform="matrix(-1 0 0 1 203 91)" fill="current"/>
<rect width="42" height="14" transform="matrix(-1 0 0 1 203 231)" fill="current"/>
</svg>
