<svg width="336" height="336" viewBox="0 0 336 336" fill="current" xmlns="http://www.w3.org/2000/svg">
<rect width="14" height="168" transform="matrix(-1 -8.74228e-08 -8.74228e-08 1 77 84)" fill="current"/>
<rect width="14" height="168" transform="matrix(-1 -8.74228e-08 -8.74228e-08 1 273 84)" fill="current"/>
<rect width="28" height="14" transform="matrix(4.37114e-08 1 1 -4.37114e-08 133 84)" fill="current"/>
<rect width="14" height="98" transform="matrix(4.37114e-08 1 1 -4.37114e-08 119 168)" fill="current"/>
<rect width="70" height="14" transform="matrix(4.37114e-08 1 1 -4.37114e-08 203 182)" fill="current"/>
<rect width="70" height="14" transform="matrix(4.37114e-08 1 1 -4.37114e-08 119 182)" fill="current"/>
<rect width="28" height="14" transform="matrix(4.37114e-08 1 1 -4.37114e-08 189 84)" fill="current"/>
<rect width="14" height="42" transform="matrix(4.37114e-08 1 1 -4.37114e-08 147 112)" fill="current"/>
<rect width="14" height="182" transform="matrix(4.37114e-08 1 1 -4.37114e-08 77 70)" fill="current"/>
<rect width="14" height="182" transform="matrix(4.37114e-08 1 1 -4.37114e-08 77 252)" fill="current"/>
</svg>
