<svg width="336" height="336" viewBox="0 0 336 336" fill="current" xmlns="http://www.w3.org/2000/svg">
<rect x="245" y="147" width="14" height="42" fill="current"/>
<rect x="245" y="189" width="14" height="70" transform="rotate(90 245 189)" fill="current"/>
<rect x="175" y="105" width="28" height="14" transform="rotate(90 175 105)" fill="current"/>
<rect x="147" y="105" width="14" height="28" transform="rotate(90 147 105)" fill="current"/>
<rect x="133" y="119" width="14" height="28" transform="rotate(90 133 119)" fill="current"/>
<rect x="147" y="217" width="14" height="28" transform="rotate(90 147 217)" fill="current"/>
<rect x="133" y="203" width="14" height="28" transform="rotate(90 133 203)" fill="current"/>
<rect x="119" y="189" width="14" height="28" transform="rotate(90 119 189)" fill="current"/>
<rect x="105" y="175" width="14" height="14" transform="rotate(90 105 175)" fill="current"/>
<rect x="91" y="147" width="42" height="14" transform="rotate(90 91 147)" fill="current"/>
<rect x="119" y="133" width="14" height="28" transform="rotate(90 119 133)" fill="current"/>
<rect x="105" y="147" width="14" height="14" transform="rotate(90 105 147)" fill="current"/>
<rect x="175" y="203" width="28" height="14" transform="rotate(90 175 203)" fill="current"/>
<rect x="245" y="133" width="14" height="70" transform="rotate(90 245 133)" fill="current"/>
<rect x="133" y="91" width="42" height="14" fill="current"/>
<rect x="133" y="231" width="42" height="14" fill="current"/>
</svg>
