<svg width="current" height="current" viewBox="0 0 336 336" fill="current" xmlns="http://www.w3.org/2000/svg">
<rect width="14" height="154" transform="matrix(-1 -8.74228e-08 -8.74228e-08 1 77 105)" fill="current"/>
<rect width="14" height="154" transform="matrix(-1 -8.74228e-08 -8.74228e-08 1 245 105)" fill="current"/>
<rect width="14" height="14" transform="matrix(4.37114e-08 1 1 -4.37114e-08 161 133)" fill="current"/>
<rect width="14" height="14" transform="matrix(4.37114e-08 1 1 -4.37114e-08 105 154)" fill="current"/>
<rect width="14" height="14" transform="matrix(4.37114e-08 1 1 -4.37114e-08 119 147)" fill="current"/>
<rect width="14" height="14" transform="matrix(4.37114e-08 1 1 -4.37114e-08 133 154)" fill="current"/>
<rect width="14" height="14" transform="matrix(4.37114e-08 1 1 -4.37114e-08 119 161)" fill="current"/>
<rect width="14" height="14" transform="matrix(4.37114e-08 1 1 -4.37114e-08 175 119)" fill="current"/>
<rect width="14" height="14" transform="matrix(4.37114e-08 1 1 -4.37114e-08 77 77)" fill="current"/>
<rect width="14" height="28" transform="matrix(4.37114e-08 1 1 -4.37114e-08 245 245)" fill="current"/>
<rect width="168" height="14" transform="matrix(4.37114e-08 1 1 -4.37114e-08 259 77)" fill="current"/>
<rect width="14" height="196" transform="matrix(4.37114e-08 1 1 -4.37114e-08 77 63)" fill="current"/>
<rect width="14" height="14" transform="matrix(4.37114e-08 1 1 -4.37114e-08 189 133)" fill="current"/>
<rect width="14" height="14" transform="matrix(4.37114e-08 1 1 -4.37114e-08 175 147)" fill="current"/>
<rect width="14" height="14" transform="matrix(4.37114e-08 1 1 -4.37114e-08 105 189)" fill="current"/>
<rect width="14" height="14" transform="matrix(4.37114e-08 1 1 -4.37114e-08 119 203)" fill="current"/>
<rect width="14" height="14" transform="matrix(4.37114e-08 1 1 -4.37114e-08 161 189)" fill="current"/>
<rect width="14" height="14" transform="matrix(4.37114e-08 1 1 -4.37114e-08 203 203)" fill="current"/>
<rect width="14" height="14" transform="matrix(4.37114e-08 1 1 -4.37114e-08 189 189)" fill="current"/>
<rect width="14" height="14" transform="matrix(4.37114e-08 1 1 -4.37114e-08 147 203)" fill="current"/>
<rect width="14" height="14" transform="matrix(4.37114e-08 1 1 -4.37114e-08 133 217)" fill="current"/>
<rect width="14" height="14" transform="matrix(4.37114e-08 1 1 -4.37114e-08 119 231)" fill="current"/>
<rect width="14" height="14" transform="matrix(4.37114e-08 1 1 -4.37114e-08 105 245)" fill="current"/>
<rect width="14" height="14" transform="matrix(4.37114e-08 1 1 -4.37114e-08 175 175)" fill="current"/>
<rect width="14" height="14" transform="matrix(4.37114e-08 1 1 -4.37114e-08 217 217)" fill="current"/>
<rect width="14" height="14" transform="matrix(4.37114e-08 1 1 -4.37114e-08 77 217)" fill="current"/>
<rect width="14" height="14" transform="matrix(4.37114e-08 1 1 -4.37114e-08 91 203)" fill="current"/>
<rect width="14" height="182" transform="matrix(4.37114e-08 1 1 -4.37114e-08 63 91)" fill="current"/>
<rect width="14" height="182" transform="matrix(4.37114e-08 1 1 -4.37114e-08 63 259)" fill="current"/>
</svg>
